<?xml version="1.0" standalone="no"?>
<!DOCTYPE svg PUBLIC "-//W3C//DTD SVG 20010904//EN"
 "http://www.w3.org/TR/2001/REC-SVG-20010904/DTD/svg10.dtd">
<svg version="1.0" xmlns="http://www.w3.org/2000/svg"
 width="500.000000pt" height="500.000000pt" viewBox="0 0 500.000000 500.000000"
 preserveAspectRatio="xMidYMid meet">
<metadata>
Created by potrace 1.11, written by Peter Selinger 2001-2013
</metadata>
<g transform="translate(0.000000,500.000000) scale(0.100000,-0.100000)"
fill="#000000" stroke="none">
<path d="M43 4989 l-43 -10 0 -240 0 -239 64 52 c92 76 178 124 286 160 88 29
106 31 237 32 l142 1 -22 24 c-83 92 -184 161 -287 197 -63 22 -95 27 -205 30
-72 2 -149 -2 -172 -7z"/>
<path d="M744 4939 c69 -63 141 -156 172 -221 13 -29 36 -48 96 -83 44 -25
111 -78 151 -116 65 -64 81 -74 164 -104 113 -40 241 -123 314 -202 43 -47
137 -178 151 -211 2 -4 39 -30 83 -57 99 -61 197 -156 263 -258 28 -42 52 -80
54 -85 2 -4 39 -30 83 -57 99 -61 197 -156 263 -258 28 -42 52 -80 54 -85 2
-4 39 -30 83 -57 99 -61 197 -156 263 -258 28 -42 52 -80 54 -85 2 -4 39 -30
83 -57 99 -61 197 -156 263 -258 28 -42 52 -80 54 -85 2 -4 39 -30 83 -57 99
-61 197 -156 263 -258 28 -42 52 -80 54 -85 2 -4 39 -30 83 -57 99 -61 197
-156 263 -258 28 -42 52 -80 54 -85 2 -4 39 -30 83 -57 99 -61 205 -166 270
-269 37 -58 60 -83 90 -98 114 -58 243 -176 319 -293 l46 -69 0 2092 0 2092
-2161 0 -2162 0 67 -61z m2196 -794 l0 -225 44 0 c33 0 52 6 69 23 14 12 95
111 181 219 175 222 159 211 305 206 l84 -3 -193 -238 c-106 -131 -201 -244
-211 -250 -16 -10 -14 -14 22 -46 21 -20 122 -148 223 -286 l184 -250 -101 -3
c-62 -2 -110 2 -122 8 -11 7 -85 98 -165 203 -209 275 -191 257 -261 257 l-59
0 0 -235 0 -235 -100 0 -100 0 0 540 0 540 100 0 100 0 0 -225z m1092 -7 l3
-233 250 0 250 0 3 233 2 232 100 0 100 0 0 -540 0 -540 -100 0 -100 0 0 235
0 235 -255 0 -255 0 0 -235 0 -235 -100 0 -100 0 0 540 0 540 100 0 100 0 2
-232z"/>
<path d="M514 4599 c-84 -10 -182 -44 -261 -90 -74 -44 -183 -152 -222 -220
l-31 -54 0 -293 0 -292 85 6 85 7 0 -77 0 -76 -54 0 c-29 0 -68 -3 -85 -6
l-31 -6 0 -225 0 -224 43 34 c130 104 326 177 477 177 l50 0 0 -74 0 -73 -87
-6 c-157 -11 -287 -71 -405 -189 l-78 -77 0 -264 0 -264 57 -12 c102 -20 105
-19 133 52 97 244 366 461 612 493 29 4 56 12 60 18 4 6 8 35 8 64 l0 52 74 0
74 0 22 61 c90 241 332 441 598 494 l34 7 -7 51 c-9 68 -31 157 -43 169 -22
22 -122 39 -227 40 -91 0 -124 -5 -190 -26 -198 -63 -353 -207 -428 -396 -28
-73 -47 -162 -47 -227 l0 -43 -76 0 -77 0 6 90 c26 356 300 664 655 735 l32 7
-6 51 c-8 67 -30 157 -42 169 -22 22 -122 39 -227 40 -91 0 -124 -5 -190 -26
-198 -63 -353 -207 -428 -396 -28 -73 -47 -162 -47 -227 l0 -43 -76 0 -77 0 6
90 c26 356 300 664 655 735 l32 7 -6 51 c-8 68 -30 157 -42 169 -29 29 -201
50 -308 37z"/>
<path d="M1003 4457 c4 -10 7 -39 7 -63 0 -24 5 -44 10 -44 18 0 12 96 -7 111
-15 12 -16 12 -10 -4z"/>
<path d="M1403 4041 c4 -18 7 -46 7 -62 0 -16 5 -29 10 -29 18 0 12 96 -7 111
-15 13 -16 11 -10 -20z"/>
<path d="M1804 3333 c-104 -245 -335 -433 -594 -484 -36 -7 -68 -17 -72 -23
-4 -6 -8 -35 -8 -63 l0 -53 -74 0 -74 0 -23 -61 c-53 -143 -193 -309 -327
-389 -81 -48 -197 -95 -260 -105 l-43 -7 6 -56 c4 -32 13 -82 22 -113 14 -53
17 -57 56 -69 23 -7 67 -15 97 -17 l55 -5 25 63 c96 245 366 463 612 495 29 4
56 12 60 18 4 6 8 35 8 64 l0 52 74 0 74 0 22 61 c90 241 332 441 598 494 l34
7 -7 51 c-9 68 -31 157 -43 169 -13 13 -112 38 -153 38 -35 0 -37 -2 -65 -67z"/>
<path d="M1574 3366 c-159 -59 -295 -178 -368 -321 -13 -27 -23 -51 -22 -52 7
-7 117 33 176 62 117 60 223 165 281 278 35 67 30 69 -67 33z"/>
<path d="M2204 2933 c-104 -245 -335 -433 -594 -484 -36 -7 -68 -17 -72 -23
-4 -6 -8 -35 -8 -63 l0 -53 -74 0 -74 0 -23 -61 c-53 -143 -193 -309 -327
-389 -81 -48 -197 -95 -260 -105 l-43 -7 6 -56 c4 -32 13 -81 21 -110 13 -47
20 -55 52 -69 20 -9 64 -18 97 -20 l60 -5 25 63 c96 245 366 463 612 495 29 4
56 12 60 18 4 6 8 35 8 64 l0 52 74 0 74 0 22 61 c90 241 332 441 598 494 l34
7 -7 51 c-9 68 -31 157 -43 169 -13 13 -112 38 -153 38 -35 0 -37 -2 -65 -67z"/>
<path d="M1974 2966 c-159 -59 -295 -178 -368 -321 -13 -27 -23 -51 -22 -52 7
-7 117 33 176 62 117 60 223 165 281 278 35 67 30 69 -67 33z"/>
<path d="M730 2677 c-157 -54 -294 -170 -375 -319 -15 -27 -24 -52 -21 -56 4
-3 37 4 74 16 160 52 310 179 386 330 30 60 28 61 -64 29z"/>
<path d="M2604 2533 c-104 -245 -335 -433 -594 -484 -36 -7 -68 -17 -72 -23
-4 -6 -8 -35 -8 -63 l0 -53 -74 0 -74 0 -23 -61 c-53 -143 -193 -309 -327
-389 -81 -48 -197 -95 -260 -105 l-43 -7 6 -56 c4 -32 13 -81 21 -110 13 -47
20 -55 52 -69 20 -9 64 -18 97 -20 l60 -5 25 63 c96 245 366 463 612 495 29 4
56 12 60 18 4 6 8 35 8 64 l0 52 74 0 74 0 22 61 c90 241 332 441 598 494 l34
7 -7 51 c-9 68 -31 157 -43 169 -13 13 -112 38 -153 38 -35 0 -37 -2 -65 -67z"/>
<path d="M2374 2566 c-159 -59 -295 -178 -368 -321 -13 -27 -23 -51 -22 -52 7
-7 117 33 176 62 117 60 223 165 281 278 35 67 30 69 -67 33z"/>
<path d="M1130 2277 c-157 -54 -294 -170 -375 -319 -15 -27 -24 -52 -21 -56 4
-3 37 4 74 16 160 52 310 179 386 330 30 60 28 61 -64 29z"/>
<path d="M3004 2133 c-104 -245 -335 -433 -594 -484 -36 -7 -68 -17 -72 -23
-4 -6 -8 -35 -8 -63 l0 -53 -74 0 -74 0 -23 -61 c-53 -143 -193 -309 -327
-389 -81 -48 -197 -95 -260 -105 l-43 -7 7 -61 c4 -34 14 -84 23 -112 15 -47
19 -51 66 -67 29 -10 73 -17 103 -15 l53 2 24 58 c36 90 84 163 158 243 115
123 276 216 427 245 36 7 68 17 72 23 4 6 8 35 8 64 l0 54 80 -4 79 -3 20 55
c11 30 37 84 58 120 52 89 200 237 288 287 65 38 181 83 248 98 28 6 29 7 22
58 -9 68 -31 157 -43 169 -13 13 -112 38 -153 38 -35 0 -37 -2 -65 -67z"/>
<path d="M2774 2166 c-159 -59 -295 -178 -368 -321 -13 -27 -23 -51 -22 -52 7
-7 117 33 176 62 117 60 223 165 281 278 35 67 30 69 -67 33z"/>
<path d="M1530 1877 c-157 -54 -294 -170 -375 -319 -15 -27 -24 -52 -21 -56 4
-3 37 4 74 16 160 52 310 179 386 330 30 60 28 61 -64 29z"/>
<path d="M0 915 l0 -915 935 0 c514 0 935 2 935 4 0 2 -11 23 -24 45 -17 32
-42 52 -100 86 -133 75 -239 181 -313 313 -25 43 -44 61 -99 93 -124 73 -229
180 -301 307 -25 43 -44 61 -99 93 -124 73 -229 180 -301 307 -25 43 -44 61
-98 93 -37 21 -90 58 -118 81 -60 51 -152 164 -187 231 -21 39 -39 56 -101 92
-42 25 -84 54 -94 65 -10 11 -22 20 -27 20 -4 0 -8 -412 -8 -915z"/>
<path d="M3404 1733 c-103 -244 -335 -433 -591 -483 l-62 -12 -6 -64 -7 -64
-69 0 c-59 0 -69 3 -69 18 0 9 -18 -23 -38 -73 -92 -221 -255 -381 -474 -465
-40 -15 -92 -31 -116 -35 l-43 -7 6 -56 c4 -32 14 -82 22 -113 l15 -57 62 -17
c96 -28 260 -24 361 9 183 58 328 185 410 358 38 80 65 186 65 261 l0 47 76 0
77 0 -6 -82 c-23 -291 -193 -545 -451 -673 -50 -25 -125 -53 -165 -62 l-73
-18 7 -55 c11 -100 -25 -90 329 -90 l313 0 45 34 c136 104 247 327 248 499 l0
47 76 0 77 0 -6 -82 c-12 -156 -71 -313 -162 -433 l-45 -60 217 -3 c119 -1
220 1 225 6 5 5 11 45 15 90 l6 82 75 0 75 0 -7 -90 -7 -90 480 0 479 0 38 52
c83 117 127 250 127 393 0 110 -21 195 -73 301 -38 77 -138 202 -181 225 -19
10 -19 6 -13 -83 24 -343 -198 -678 -531 -803 -68 -26 -213 -55 -271 -55 l-34
0 0 75 0 75 53 0 c119 0 291 66 392 150 114 95 199 234 231 378 21 92 15 241
-13 321 -17 53 -20 55 -67 67 -56 15 -147 21 -163 11 -6 -4 -13 -25 -17 -48
-4 -23 -21 -76 -38 -117 -87 -208 -262 -378 -473 -457 -68 -26 -213 -55 -271
-55 l-34 0 0 75 0 75 53 0 c166 0 367 101 487 245 71 86 159 285 126 285 -9 0
-15 24 -19 80 -7 87 -44 210 -83 278 l-25 43 -56 -3 -57 -3 -13 -58 c-54 -240
-261 -469 -508 -562 -68 -26 -213 -55 -271 -55 l-34 0 0 75 0 75 53 0 c119 0
291 66 392 150 101 85 182 206 218 328 15 49 15 52 -2 52 -15 0 -19 12 -25 68
-4 37 -14 95 -23 129 l-15 63 -51 15 c-28 8 -72 15 -97 15 l-47 0 -29 -67z"/>
<path d="M3230 1780 c-124 -39 -218 -98 -306 -193 -61 -65 -131 -173 -120
-184 9 -9 84 16 156 52 77 40 149 98 208 168 43 52 109 168 95 166 -5 0 -19
-4 -33 -9z"/>
<path d="M1930 1477 c-157 -54 -294 -170 -375 -319 -15 -27 -24 -52 -21 -56 4
-3 37 4 74 16 160 52 310 179 386 330 30 60 28 61 -64 29z"/>
<path d="M4260 1353 c0 -10 3 -35 6 -55 7 -38 7 -38 55 -38 27 0 49 4 49 9 0
9 -95 101 -105 101 -3 0 -5 -8 -5 -17z"/>
<path d="M2380 1090 c-187 -59 -335 -182 -419 -347 -12 -24 -18 -43 -13 -43 4
0 36 9 69 21 114 38 230 121 307 219 44 56 102 161 89 159 -5 0 -19 -4 -33 -9z"/>
<path d="M2177 134 c-12 -13 -8 -91 7 -103 11 -9 12 -2 9 41 -6 67 -7 71 -16
62z"/>
<path d="M4972 40 l-23 -40 26 0 c23 0 25 4 25 40 0 22 -1 40 -2 40 -2 0 -13
-18 -26 -40z"/>
</g>
</svg>
