<svg enable-background="new 0 0 960 844.8" height="844.8" viewBox="0 0 960 844.8" width="960" xmlns="http://www.w3.org/2000/svg"><g id="Layer_2" display="none"><rect display="inline" fill="#7a66a9" height="15783" width="1220" x="-130" y="-7571.562"/></g><g id="Layer_1"><g><g id="XMLID_1323_" opacity=".4"><g><path id="XMLID_213_" d="m519.493 219.639c-4.55 4.55-12.615 7.134-19.544 7.134-8.479 0-14.476-4.239-14.476-11.065 0-4.032 2.999-8.893 8.685-8.893 4.964 0 8.066 3.723 8.066 7.963 0 2.689-.93 5.17-2.481 6.721-2.586 2.586-4.861 2.378-5.274 2.792-.517.517.827 1.138 3.516 1.138 2.791 0 5.17-1.241 6.204-3.31.93-1.861 1.345-3.723 1.345-8.375 0-15.615-.206-36.194-.311-51.29 0-1.551-.103-2.068-.413-2.378-.311-.311-.827-.311-5.585-.517-.206 0-.206-1.034.103-1.034 7.135 0 19.13.103 26.266-.105.414 0 .517.517.517 1.035v27.92c0 2.585.103 12.822.103 15.924 0 6.102-1.757 11.376-6.721 16.34zm-5.377-65.354c-5.17 0-10.031-3.516-10.031-8.996 0-5.481 4.55-10.445 12.719-10.445 6.412 0 10.548 4.343 10.548 9.41 0 6.308-5.791 10.031-13.236 10.031z"/><path id="XMLID_210_" d="m544.205 159.662c0 1.241 6.826 1.241 6.826 9.41 0 5.997-4.343 9.307-9.825 9.307-5.686 0-9.72-3.31-9.72-8.894 0-2.688.827-4.653 2.999-6.825 3.413-3.412 8.686-5.274 17.579-5.274 11.375 0 16.752 2.481 20.268 5.997 4.239 4.24 5.48 10.444 5.48 16.752 0 4.55-.206 8.583-.206 18.924 0 1.551.621 1.964 1.345 1.964 1.24 0 2.688-2.275 2.792-9.72 0-.413 1.343-.517 1.343 0 0 9.307-1.964 14.063-12.201 14.063-8.377 0-12.823-3.102-14.787-7.342-2.586 4.343-7.135 7.55-13.754 7.55-7.756 0-13.443-5.275-13.443-11.893 0-3.619 1.24-6.204 3.308-8.272 3.516-3.516 9.101-5.583 24.197-7.135.103-1.654.103-7.237 0-10.341-.103-2.791-.621-5.48-2.172-7.031-1.241-1.241-3.308-2.275-6.618-2.275-2.582.001-3.411.517-3.411 1.035zm5.999 31.333c0 7.239.93 8.375 2.585 8.375 1.138 0 1.862-.827 2.483-2.068.516-1.034.827-2.481.93-5.067.103-3.205.103-8.479.206-12.822-4.861.62-6.204 2.792-6.204 11.582z"/><path id="XMLID_207_" d="m604.076 158.525c.413 0 .516.103.621.516.103 2.275.206 7.239.206 9.514h.103c1.241-5.48 5.585-11.477 12.822-11.477 4.964 0 8.066 1.551 11.272 4.756 3.826 3.826 7.134 10.858 7.134 18.924 0 8.272-3.102 14.994-7.548 19.44-3.516 3.516-7.135 5.894-12.512 5.894s-9.099-2.792-10.858-6.825h-.103c.103 9.307.103 17.992.103 19.751 0 4.446.208 5.067.517 5.377.206.206.621.311 5.481.414.413 0 .413 1.034.103 1.034h-16.546c-3.205 0-13.546.103-16.028.206-.206 0-.31-1.034 0-1.034 3.827-.206 4.446-.206 4.654-.414.31-.31.516-2.999.516-6.721 0-12.305.104-30.298-.103-47.981-.103-6.618-.31-9.307-.724-9.72-.31-.311-1.24-.311-4.343-.414-.206 0-.206-1.137.104-1.137 4.551 0 21.51.104 25.129-.103zm3.102 7.237c-1.448 2.895-2.378 7.239-2.378 12.512 0 16.649.31 17.994 1.551 20.475 1.137 2.275 2.481 3.516 3.826 3.516 2.481 0 3.205-3.516 3.205-20.992 0-12.822-.31-15.303-1.137-16.959-.414-.827-.93-1.448-1.965-1.448-1.241.001-2.068.829-3.102 2.896z"/><path id="XMLID_204_" d="m686.592 197.095c-5.274 5.274-12.719 8.583-21.095 8.583-9.203 0-17.579-3.93-22.129-8.48-3.619-3.619-5.997-8.686-5.997-15.305 0-6.307 2.275-11.685 6.618-16.027 5.17-5.17 13.754-8.686 21.923-8.686 8.582 0 16.235 4.032 21.508 9.306 3.929 3.93 5.894 8.997 5.894 14.995 0 6.618-2.689 11.582-6.722 15.614zm-17.993-37.433c-.516-1.034-1.137-1.551-2.481-1.551-1.551 0-2.481.93-2.999 1.965-1.138 2.275-1.862 7.239-1.862 21.818 0 19.235 1.448 22.957 4.448 22.957 1.343 0 2.17-.724 2.791-1.965 1.138-2.275 1.551-5.997 1.551-25.231 0-11.788-.517-16.131-1.448-17.993z"/><path id="XMLID_202_" d="m690.829 203.507c3.308-.103 4.343-.208 4.55-.414.206-.206.414-1.448.414-6.721 0-1.448-.103-30.092-.103-31.022 0-3.516-.104-5.067-.414-5.377-.206-.208-.724-.311-4.446-.414-.31 0-.31-1.034 0-1.034 4.964 0 21.612 0 26.058-.105.517 0 .517.208.517.932-.103 3.308-.103 7.445 0 10.237h.103c2.378-6.929 6.721-12.72 15.408-12.72 8.996 0 13.339 5.17 13.339 15.305 0 4.343-.206 12.926-.206 19.337 0 8.377.206 11.272.517 11.582.206.206.93.311 4.032.414.311 0 .311 1.034 0 1.034-8.996-.206-21.094-.103-28.436-.103-.311 0-.311-1.034-.105-1.034 1.656-.105 2.172-.105 2.379-.311.206-.206.206-.621.206-4.24 0-1.24-.103-28.333-.103-29.057 0-2.068 0-4.343-2.275-4.343-1.345 0-2.172.93-3.206 2.999-1.137 2.275-1.757 5.481-1.757 9.823v22.337c0 1.654.103 2.275.31 2.481.208.206 1.035.206 2.483.311.31 0 .206 1.034-.103 1.034-7.239 0-21.716 0-29.161.103-.208 0-.208-1.034-.001-1.034z"/><path id="XMLID_199_" d="m747.7 204.437c-.31 0-.31-1.034-.103-1.034 2.586-.105 4.861-.105 5.067-.311s.31-1.034.414-4.343c.103-3.619.103-6.41.103-10.341 0-4.135-.311-24.197-.311-25.645 0-1.343-.103-2.481-.31-2.688-.206-.208-.93-.208-5.377-.311-.208 0-.311-1.034 0-1.034 11.374-.206 19.854-.311 25.748-.311.93 0 1.24.208 1.24.932 0 12.719.103 26.679.103 34.538 0 8.272.208 8.996.414 9.203.206.206.621.311 4.653.414.208 0 .208 1.034 0 1.034-2.067.001-30.194-.103-31.641-.103zm14.994-49.842c-7.135 0-10.858-4.653-10.858-9.514 0-2.792 1.137-4.963 2.999-6.825 1.757-1.757 4.756-3.413 9.927-3.413 6.515 0 10.342 3.827 10.342 8.893-.001 6.516-5.482 10.859-12.41 10.859z"/><path id="XMLID_197_" d="m819.152 199.681c-3.102 3.205-8.479 5.48-14.89 5.48-10.961 0-16.752-5.067-17.268-5.067-.311 0-1.656.827-6.929 5.791-.31.31-.621.206-.621-.206-.206-5.378-.827-13.03-1.24-17.994 0-.413.516-.724.827-.206 1.137 2.275 3.412 6.101 5.688 8.375 4.756 4.757 11.168 7.963 19.44 7.963 4.446 0 6.412-.724 7.548-1.861.621-.621.93-1.551.93-2.792 0-2.895-2.791-4.137-12.925-6.412-7.445-1.654-13.547-4.137-16.959-7.548-2.689-2.689-3.929-6.205-3.929-10.444 0-9.307 6.825-17.063 18.923-17.063 9.41 0 15.201 5.17 15.614 5.17.311 0 1.035-.619 6.723-6.101.31-.31.619-.31.619.103-.206 4.861 0 10.652.311 15.511 0 .724-.414.828-.93.311-.828-.93-1.862-2.378-3.723-4.24-5.585-5.585-9.721-9.41-18.511-9.41-3.205 0-5.583.724-6.618 1.759-.619.621-.93 1.448-.93 2.275 0 3.102 2.689 4.343 12.719 6.41 8.17 1.655 13.547 3.93 16.959 7.342 2.379 2.379 3.724 5.894 3.724 10.342-.001 5.686-1.656 9.617-4.552 12.512z"/><path id="XMLID_195_" d="m880.47 204.437c-.206 0-.31-1.034 0-1.034 1.344 0 2.068-.105 2.275-.311.208-.206.208-.724.208-1.654v-31.848c0-3.103-.621-4.343-2.275-4.343-1.138 0-1.862.621-2.586 2.068-1.345 2.688-1.757 5.997-1.861 10.133-.105 4.24-.105 17.476 0 23.681 0 1.343 0 1.757.206 1.964.206.206 1.448.311 2.378.414.31 0 .31 1.034 0 1.034-1.241 0-20.992-.103-26.886-.103-.206 0-.31-1.034 0-1.034 1.759 0 2.172 0 2.379-.208.206-.206.206-.93.206-1.551.103-1.861-.103-22.646-.103-31.643 0-2.068-.206-3.205-.517-3.826-.31-.621-.724-.93-1.448-.93-1.034 0-1.757.621-2.481 2.068-1.448 2.894-2.172 6.825-2.172 12.098v20.578c0 1.965 0 2.895.206 3.102.206.206.517.206 2.378.414.208 0 .208 1.034-.103 1.034-5.688-.103-23.474-.103-28.954 0-.311 0-.311-1.034 0-1.034 3.723-.103 4.55-.103 4.756-.311.208-.206.311-.621.311-4.859v-30.919c0-5.378-.103-7.032-.414-7.342-.206-.208-1.137-.311-4.446-.517-.206 0-.206-1.034.103-1.034.932 0 22.026.103 25.852 0 .208 0 .311.206.311.619 0 .828-.103 10.134-.103 10.445h.103c2.275-6.618 6.928-12.512 15.408-12.512 8.066 0 11.995 5.583 12.822 12.098 1.862-6.308 6.826-11.995 14.477-11.995 4.446 0 7.548 1.24 9.926 3.619 2.792 2.791 4.24 7.031 4.24 13.028 0 2.895-.103 25.956-.103 27.92 0 .724.103 1.035.31 1.241.208.206.621.31 4.034.517.206 0 .206 1.034 0 1.034-7.238-.101-22.026-.101-28.437-.101z"/><path id="XMLID_192_" d="m957.712 190.271c-3.515 10.134-11.168 15.408-21.508 15.408-9.72 0-18.51-3.723-23.474-8.686-3.723-3.723-6.101-7.963-6.101-15.098 0-5.791 2.585-11.581 6.825-15.821 5.067-5.067 11.892-8.893 20.268-8.893 7.858 0 13.649 2.895 17.889 7.134 4.034 4.034 6.825 9.101 6.825 17.063 0 .619-.103.724-.516.724-20.372-.105-26.576.103-28.747.31 0 9.204.724 13.133 2.067 15.822 1.655 3.308 5.17 4.756 9.41 4.756 6.412 0 12.203-4.137 15.822-13.236.517-.415 1.345.103 1.24.517zm-26.367-30.506c-1.344 2.689-1.759 8.377-2.068 21.095l8.686-.103c-.104-17.994-1.241-22.44-4.343-22.44-1.242 0-1.862.621-2.275 1.448z"/></g></g><g id="XMLID_1295_" opacity=".4"><g><path id="XMLID_298_" d="m495.065 556.353c0-3.254 1.119-6.102 3.459-8.44 3.458-3.457 8.542-4.983 18.406-6.406 5.796-.814 6.61-.915 6.61-2.542v-4.474c0-6-2.848-8.34-8.95-8.34-2.745 0-4.983.508-7.118 1.729 1.626.915 2.745 2.847 2.745 4.983 0 3.356-2.542 6-6.508 6-4.475 0-6.813-3.153-6.813-6.508 0-7.932 9.559-12.305 20.542-12.305 12.203 0 17.898 5.39 17.898 15.254v22.78c0 2.237.813 3.152 2.847 3.152 1.323 0 2.542-1.322 3.457-4.169l4.17 1.932c-2.237 6.711-5.796 9.457-11.389 9.457-4.881 0-9.153-2.644-9.458-8.949h-.508c-2.848 6-8.949 9.153-15.357 9.153-8.54-.001-14.033-4.984-14.033-12.307zm28.476-4.983v-6.61c-.916.407-2.034.508-4.576 1.017-8.746 1.424-11.389 3.051-11.389 8.44 0 4.068 2.135 7.017 7.016 7.017 4.474 0 8.949-4.067 8.949-9.864z"/><path id="XMLID_296_" d="m541.028 545.166c0-14.745 10.474-25.118 25.017-25.118 11.695 0 19.017 7.525 19.017 14.034 0 4.983-2.542 8.542-7.22 8.542-4.372 0-6.915-3.153-6.915-6.712 0-2.949 2.237-5.491 4.169-6.204-1.424-2.135-4.271-3.762-8.745-3.762-6.915 0-12.508 6.406-12.508 18.102 0 10.881 4.576 17.491 13.423 17.491 5.593 0 9.864-3.255 12-9.457h6.204c-2.238 10.372-9.559 16.881-20.644 16.881-15.052 0-23.798-9.966-23.798-23.797z"/><path id="XMLID_294_" d="m585.263 545.166c0-14.745 10.474-25.118 25.017-25.118 11.695 0 19.017 7.525 19.017 14.034 0 4.983-2.542 8.542-7.22 8.542-4.372 0-6.915-3.153-6.915-6.712 0-2.949 2.237-5.491 4.169-6.204-1.424-2.135-4.271-3.762-8.745-3.762-6.915 0-12.508 6.406-12.508 18.102 0 10.881 4.576 17.491 13.423 17.491 5.593 0 9.864-3.255 12-9.457h6.204c-2.238 10.372-9.559 16.881-20.644 16.881-15.051 0-23.798-9.966-23.798-23.797z"/><path id="XMLID_291_" d="m642.109 545.574c.406 11.39 5.187 16.169 13.627 16.169 5.593 0 9.661-2.44 12.204-8.44h6.101c-2.339 9.966-9.356 15.661-20.949 15.661-14.847 0-23.593-10.17-23.593-24 0-14.238 10.068-24.915 23.797-24.915 14.847 0 21.559 11.898 21.051 25.525zm.102-5.391h20.338c-.609-9.152-3.457-14.135-9.864-14.135-5.796.001-9.661 3.763-10.474 14.135z"/><path id="XMLID_289_" d="m675.766 551.268h7.118c3.255 7.017 8.746 11.797 14.95 11.797 4.983 0 7.118-2.34 7.118-5.695 0-3.966-2.847-5.694-12.203-8.136-11.187-3.051-16.374-6.813-16.374-14.745s6.508-14.44 16.576-14.44c5.391 0 9.559 2.034 12.102 5.593l1.424-5.593h6.814v16.169h-7.119c-3.356-6.407-6.813-10.474-12.61-10.474-3.762 0-6.711 1.932-6.711 5.391 0 3.762 3.254 5.592 11.898 7.83 10.576 2.847 16.677 6.305 16.677 14.847 0 7.525-6.305 15.153-17.287 15.153-6.508 0-11.187-2.746-14.238-6.305l-1.424 6.203h-6.711z"/><path id="XMLID_286_" d="m716.442 551.268h7.118c3.255 7.017 8.746 11.797 14.95 11.797 4.983 0 7.118-2.34 7.118-5.695 0-3.966-2.847-5.694-12.203-8.136-11.187-3.051-16.374-6.813-16.374-14.745s6.508-14.44 16.576-14.44c5.391 0 9.559 2.034 12.102 5.593l1.424-5.593h6.814v16.169h-7.119c-3.356-6.407-6.813-10.474-12.61-10.474-3.762 0-6.711 1.932-6.711 5.391 0 3.762 3.254 5.592 11.898 7.83 10.576 2.847 16.677 6.305 16.677 14.847 0 7.525-6.305 15.153-17.287 15.153-6.508 0-11.187-2.746-14.238-6.305l-1.424 6.203h-6.711z"/><path id="XMLID_283_" d="m756.303 544.659c0-14.442 10.068-24.61 24.306-24.61 14.745 0 24.305 9.762 24.305 24.203 0 14.44-10.068 24.712-24.305 24.712-14.848-.001-24.306-9.865-24.306-24.305zm35.593-.204c0-12.915-4.271-18.306-11.694-18.306-7.425 0-10.882 5.493-10.882 18.306s4.17 18.406 11.695 18.406c7.221.001 10.881-5.593 10.881-18.406z"/><path id="XMLID_281_" d="m805.419 560.421h7.221v-32.034h-7.221v-7.525h18.508v11.491c2.542-8.237 8.44-12.204 14.238-12.204 5.491 0 8.745 3.967 8.745 8.542 0 4.17-2.949 7.525-6.915 7.525s-7.017-2.339-7.017-6.508c0-.407.102-.915.204-1.322-3.763 0-7.017 4.271-8.746 10.17v21.864h8.848v7.525h-27.865z"/><path id="XMLID_278_" d="m845.078 560.421h8.135v-32.034h-8.135v-7.525h20.034v39.559h8.135v7.525h-28.168v-7.525zm5.694-55.423c0-4.474 3.153-7.729 7.729-7.729s7.627 2.949 7.627 7.423-3.051 7.627-7.627 7.627-7.729-2.949-7.729-7.321z"/><path id="XMLID_276_" d="m872.228 561.844 28.474-34.779h-10.372c-6.814 0-8.34 1.322-11.391 11.694h-5.492v-17.898h40.78v6.102l-28.576 34.881h12.406c6.61 0 8.034-1.627 10.882-12.813h5.491v18.915h-42.204v-6.102z"/><path id="XMLID_273_" d="m927.241 545.574c.407 11.39 5.187 16.169 13.627 16.169 5.593 0 9.661-2.44 12.204-8.44h6.101c-2.339 9.966-9.356 15.661-20.949 15.661-14.847 0-23.593-10.17-23.593-24 0-14.238 10.068-24.915 23.797-24.915 14.847 0 21.559 11.898 21.051 25.525zm.102-5.391h20.338c-.61-9.152-3.458-14.135-9.864-14.135-5.796.001-9.661 3.763-10.474 14.135z"/></g></g><g id="XMLID_1263_" opacity=".4"><g><path id="XMLID_430_" d="m540.3 811.591v-35.365c0-2.203-.734-3.777-2.414-3.777-1.889 0-2.729 1.574-2.729 3.777v35.365h-17.001v-35.365c0-2.203-.839-3.777-2.518-3.777-1.889 0-2.623 1.574-2.623 3.777v35.365h-17.735v-51.526h15.111l.63 6.716c3.043-5.351 7.135-7.556 12.278-7.556 5.353 0 8.815 3.254 10.285 8.291 2.833-5.772 8.605-8.291 13.747-8.291 7.241 0 10.599 4.933 10.599 12.594v39.772z"/><path id="XMLID_404_" d="m586.159 811.591-.63-6.716c-2.938 5.353-7.346 7.556-12.488 7.556-7.24 0-12.172-4.932-12.172-12.593v-39.773h17.629v35.47c0 2.205.84 3.779 2.519 3.779 1.889 0 2.623-1.574 2.623-3.779v-35.47h17.735v51.526z"/><path id="XMLID_402_" d="m604.631 811.591v-69.89h17.735v69.89z"/><path id="XMLID_400_" d="m648.076 772.764v22.667c0 6.506 1.05 11.544 3.358 16.161h-18.259c-2.205-4.198-2.834-8.711-2.834-16.161v-22.667h-6.61v-12.698h7.24v-9.234l17.105-3.777v13.012h7.977v12.698h-7.977z"/><path id="XMLID_397_" d="m656.786 756.603v-14.902h17.735v14.902zm0 54.988v-51.526h17.735v51.526z"/><path id="XMLID_395_" d="m700.547 811.591v-35.365c0-2.203-.735-3.777-2.414-3.777-1.89 0-2.729 1.574-2.729 3.777v35.365h-17.734v-51.526h15.215l.63 6.716c2.939-5.351 7.347-7.556 12.488-7.556 7.241 0 12.173 4.933 12.173 12.594v39.772z"/><path id="XMLID_392_" d="m755.64 812.011c-5.982 0-8.606-1.993-10.389-7.135-2.52 5.247-6.612 7.556-12.488 7.556-8.5 0-13.538-4.932-13.538-13.853v-.524c0-9.445 7.241-13.643 22.143-17.316v-6.297c0-1.784-.315-3.043-2.203-3.043-1.995 0-1.995 2.309-1.995 7.031h-16.161c-.315-12.593 5.772-19.309 19.1-19.309 12.697 0 18.889 7.241 18.889 16.895v21.199c0 1.784.315 2.624 2.099 2.624v12.172zm-14.272-23.716c-3.777 1.153-4.932 3.358-4.932 6.925v2.52c0 2.623.734 3.988 2.414 3.988 2.203 0 2.518-1.365 2.518-3.358z"/><path id="XMLID_390_" d="m785.023 772.764v22.667c0 6.506 1.05 11.544 3.358 16.161h-18.259c-2.205-4.198-2.834-8.711-2.834-16.161v-22.667h-6.61v-12.698h7.24v-9.234l17.105-3.777v13.012h7.977v12.698h-7.977z"/><path id="XMLID_387_" d="m793.734 756.603v-14.902h17.735v14.902zm0 54.988v-51.526h17.735v51.526z"/><path id="XMLID_376_" d="m833.821 812.431c-12.382 0-19.624-7.975-19.624-17.841v-17.525c0-9.864 7.241-17.841 19.624-17.841 12.384 0 19.729 7.977 19.729 17.841v17.525c0 9.866-7.345 17.841-19.729 17.841zm2.52-37.045c0-2.203-.735-3.673-2.52-3.673-1.783 0-2.518 1.469-2.518 3.673v20.884c0 2.203.735 3.673 2.518 3.673 1.784 0 2.52-1.469 2.52-3.673z"/><path id="XMLID_335_" d="m879.155 811.591v-35.365c0-2.203-.734-3.777-2.412-3.777-1.89 0-2.729 1.574-2.729 3.777v35.365h-17.735v-51.526h15.215l.63 6.716c2.939-5.351 7.347-7.556 12.488-7.556 7.241 0 12.173 4.933 12.173 12.594v39.772z"/><path id="XMLID_332_" d="m934.25 812.011c-5.982 0-8.606-1.993-10.389-7.135-2.52 5.247-6.612 7.556-12.488 7.556-8.5 0-13.538-4.932-13.538-13.853v-.524c0-9.445 7.241-13.643 22.143-17.316v-6.297c0-1.784-.315-3.043-2.203-3.043-1.994 0-1.994 2.309-1.994 7.031h-16.161c-.315-12.593 5.772-19.309 19.1-19.309 12.697 0 18.889 7.241 18.889 16.895v21.199c0 1.784.315 2.624 2.099 2.624v12.172zm-14.272-23.716c-3.777 1.153-4.932 3.358-4.932 6.925v2.52c0 2.623.734 3.988 2.414 3.988 2.203 0 2.518-1.365 2.518-3.358z"/><path id="XMLID_330_" d="m941.071 811.591v-69.89h17.735v69.89z"/></g></g><g id="XMLID_1235_" opacity=".4"><g><path id="XMLID_271_" d="m541.826 648.199c1.952 1.952 2.776 4.42 2.776 7.093 0 5.243-3.599 9.972-8.637 9.972-3.494 0-6.271-2.467-6.271-5.86 0-8.637 10.59-8.637 11.001-9.047.412-.308-2.261-4.216-7.299-4.216-6.786 0-11.412 6.168-15.833 14.908-3.496 6.888-6.373 14.907-6.373 19.431 0 1.336.205 2.467.822 3.598.925 1.85 2.981 3.187 6.168 3.187 4.729 0 9.87-2.879 13.776-6.683 2.057-2.056 3.907-4.318 5.655-6.477.206-.308 1.44.412 1.234.72-2.672 3.494-3.906 4.935-6.065 7.093-5.244 5.243-12.234 8.43-19.123 8.43-4.627 0-10.282-1.85-13.674-5.243-2.467-2.467-4.215-5.449-4.215-10.076 0-6.168 2.981-12.748 8.43-18.197 6.785-6.785 17.066-12.44 26.628-12.44 5.242.003 8.635 1.545 11 3.807z"/><path id="XMLID_268_" d="m579.252 650.358c1.13-2.365 2.261-5.244 2.672-5.346.412-.103 13.16.617 14.291.925.205.102.514 1.337.41 1.645-1.234 2.776-8.739 21.075-12.44 30.122-1.542 4.011-2.159 6.066-2.159 6.992 0 1.13.72 1.748 1.645 1.748 1.747 0 4.523-2.365 9.252-10.487.103-.308 1.234.308 1.13.514-4.935 8.842-8.635 13.571-16.449 13.571-5.655 0-9.562-3.289-9.562-8.225 0-1.234.206-2.569.515-4.009-4.729 6.683-10.692 12.338-17.067 12.338-6.271 0-11.206-5.655-11.206-13.674 0-6.785 3.393-14.393 10.589-21.59 6.271-6.271 13.468-10.281 19.74-10.281 4.526-.001 7.507 2.57 8.639 5.757zm-18.096 13.365c-3.393 6.683-6.477 15.319-6.477 17.992 0 2.159 1.337 3.598 3.291 3.598 3.186 0 8.635-5.86 12.234-12.955 3.906-7.915 7.813-17.683 7.813-20.458 0-1.645-1.337-3.392-3.599-3.392-4.728 0-9.251 7.093-13.262 15.215z"/><path id="XMLID_266_" d="m632.511 622.188c.308 0 .308.205.205.41-4.113 9.15-17.581 41.741-23.44 55.723-1.337 2.982-1.749 4.524-1.749 5.758s.617 2.159 1.852 2.159c1.747 0 4.523-2.159 9.561-10.384.103-.308 1.234.308 1.13.515-4.626 8.122-9.149 13.468-15.627 13.468-3.392 0-6.58-.823-8.635-2.776-1.337-1.44-2.159-3.394-2.159-5.553 0-2.879.617-5.243 2.364-9.252 7.403-17.169 14.805-34.544 18.917-45.442 1.028-2.571.822-3.291.617-3.496-.308-.308-4.524-.205-8.02-.308-.308 0-.205-1.029.103-1.029 6.58-.101 18.301.412 24.881.207z"/><path id="XMLID_263_" d="m649.271 645.937c.617 0 .205 1.85-.308 3.084-.822 1.747-11.618 26.628-13.776 32.179-.617 1.542-.925 2.365-.925 3.291 0 1.13.925 1.85 1.954 1.85 2.261 0 4.831-2.057 9.664-10.487.102-.205 1.234.308 1.13.515-5.346 10.281-9.972 13.776-15.73 13.776-4.009 0-6.785-1.337-8.224-2.776-1.543-1.543-2.57-3.394-2.57-5.963 0-2.57.822-5.038 3.187-10.796 2.364-5.86 6.271-15.01 9.149-21.59.412-1.028.617-1.337.412-1.542-.412-.412-5.346-.617-8.225-.617-.308 0-.102-.925.206-.925 4.83-.205 20.252-.102 24.056.001zm7.3-17.477c0 2.776-1.44 5.243-2.879 6.682-1.85 1.85-4.626 2.879-8.122 2.879-3.907 0-6.786-2.262-6.786-5.963 0-5.14 5.758-9.972 11.104-9.972 4.523-.001 6.683 3.186 6.683 6.374z"/><path id="XMLID_261_" d="m708.492 630.619c0 4.935-4.421 9.15-9.562 9.15-3.496 0-7.3-2.16-7.3-6.375 0-2.057.823-3.701 2.057-4.935 3.598-3.599 9.047-2.982 9.252-3.187.308-.308-.925-2.776-5.655-2.776-6.99 0-10.692 4.935-14.29 12.131-1.85 3.804-3.599 7.608-4.935 11.206 3.084.103 7.813.103 10.177.103.412 0 .206 1.337-.412 1.337h-9.664c-.205 0-.514 0-.617.205-4.318 9.972-8.532 20.46-13.365 31.974-4.421 10.486-8.944 17.786-14.188 23.029-5.655 5.655-11.001 8.328-17.889 8.328s-9.972-3.804-9.972-7.813c0-4.729 2.982-8.328 7.3-8.328 2.879 0 4.626 2.159 4.626 4.729 0 1.234-.205 2.262-.617 3.187-2.159 4.318-8.225 3.084-8.225 3.701 0 1.44 2.159 2.982 5.141 2.982 1.954 0 3.598-.617 4.935-1.954 1.44-1.439 2.674-3.393 4.626-7.402 4.936-10.692 15.32-37.012 21.076-50.788.308-1.029.514-1.749.412-1.85-.206-.103-4.524-.103-6.991-.206-.514 0-.103-1.337.412-1.337 2.364.103 7.197.103 7.402-.102.412-.308 1.234-2.57 2.879-5.86 1.645-3.291 4.009-6.89 6.785-9.665 6.066-6.065 13.88-8.944 23.955-8.944 8.328.001 12.647 4.01 12.647 9.46z"/><path id="XMLID_258_" d="m727.513 661.667c0 6.785-3.494 13.056-8.43 17.991-6.58 6.58-16.244 10.898-25.599 10.898-4.318 0-9.252-1.952-12.748-5.448-3.084-3.084-5.141-7.197-5.141-12.338 0-5.86 2.467-11.001 8.122-16.655 6.888-6.888 16.964-11.823 26.319-11.823 10.178 0 17.477 7.916 17.477 17.375zm-22.824-13.366c-5.655 5.655-15.935 29.815-15.935 37.012 0 2.467 1.645 4.113 4.421 4.113 2.262 0 4.009-.72 5.758-2.467 4.111-4.113 15.832-29.198 15.832-37.525 0-2.365-1.439-4.011-3.906-4.011-2.263-.001-4.421 1.131-6.17 2.878z"/><path id="XMLID_256_" d="m753.219 645.937c.514 0 2.057 0 2.365.308s-1.543 5.757-5.449 14.907c-.103.206.103.308.308.103 3.187-4.421 6.271-8.225 9.459-11.412 3.496-3.496 6.682-5.243 10.281-5.243 4.113 0 8.019 2.674 8.019 7.608 0 6.168-5.655 12.645-11.103 12.645-3.907 0-6.271-2.364-6.271-5.655 0-7.915 8.122-10.691 7.093-11.72-.41-.412-2.981-.514-7.813 4.318-5.655 5.655-10.281 12.338-13.571 18.917-2.159 4.215-5.036 11.103-7.915 17.991-.103.412-13.263.412-15.833.515-.514 0-.617-.412-.41-.823 3.084-6.58 9.252-20.87 13.673-30.842 2.672-6.169 3.804-9.87 3.496-10.179s-6.478-.41-8.122-.514c-.206 0-.103-1.028.205-1.028 1.437.001 20.766.104 21.588.104z"/><path id="XMLID_254_" d="m800.208 645.629c.205 0 .514.205.41.514-.719 2.159-3.598 10.179-4.523 12.44-.206.206.102.515.308.308 6.888-9.972 13.056-14.495 18.608-14.495 3.291 0 5.553 1.027 7.197 2.776 1.645 1.542 2.365 3.598 2.365 6.066 0 3.598-1.028 6.27-5.243 15.627-5.553 12.44-6.169 14.187-6.169 15.524 0 1.028.72 1.748 1.645 1.748 2.159 0 4.626-2.262 9.252-9.974.103-.205 1.234.412 1.029.617-4.626 8.637-9.15 13.263-16.655 13.263-3.289 0-5.757-.925-7.607-2.879-1.337-1.337-2.16-3.393-2.16-5.655 0-2.571 1.028-5.963 5.449-15.421 5.038-10.899 5.655-12.441 5.655-13.778 0-1.13-.72-1.952-1.747-1.952-1.645 0-2.982.719-6.58 4.421-4.113 4.009-8.02 10.794-9.974 15.421-1.439 3.291-6.477 15.113-8.019 18.712-.103.41-15.319.102-15.935.102-.205 0-.205-.205-.103-.514 1.337-2.982 10.281-23.544 11.823-27.245 4.011-9.767 5.038-13.673 4.627-14.085-.308-.308-6.271-.205-7.608-.308-.308 0 0-.925.308-.925 5.655 0 23.132-.308 23.647-.308z"/><path id="XMLID_251_" d="m854.084 645.937c.617 0 .205 1.85-.308 3.084-.823 1.747-11.618 26.628-13.776 32.179-.617 1.542-.925 2.365-.925 3.291 0 1.13.925 1.85 1.954 1.85 2.261 0 4.831-2.057 9.664-10.487.102-.205 1.234.308 1.13.515-5.346 10.281-9.972 13.776-15.73 13.776-4.009 0-6.785-1.337-8.224-2.776-1.543-1.543-2.57-3.394-2.57-5.963 0-2.57.822-5.038 3.187-10.796 2.364-5.86 6.271-15.01 9.149-21.59.412-1.028.617-1.337.412-1.542-.412-.412-5.346-.617-8.225-.617-.308 0-.102-.925.206-.925 4.83-.205 20.252-.102 24.056.001zm7.3-17.477c0 2.776-1.44 5.243-2.879 6.682-1.85 1.85-4.626 2.879-8.122 2.879-3.907 0-6.786-2.262-6.786-5.963 0-5.14 5.758-9.972 11.104-9.972 4.523-.001 6.683 3.186 6.683 6.374z"/><path id="XMLID_248_" d="m890.07 650.358c1.13-2.365 2.261-5.244 2.672-5.346.412-.103 13.16.617 14.291.925.205.102.514 1.337.41 1.645-1.234 2.776-8.739 21.075-12.44 30.122-1.542 4.011-2.159 6.066-2.159 6.992 0 1.13.72 1.748 1.645 1.748 1.747 0 4.523-2.365 9.252-10.487.103-.308 1.234.308 1.13.514-4.935 8.842-8.635 13.571-16.449 13.571-5.655 0-9.562-3.289-9.562-8.225 0-1.234.206-2.569.515-4.009-4.729 6.683-10.692 12.338-17.067 12.338-6.271 0-11.206-5.655-11.206-13.674 0-6.785 3.392-14.393 10.589-21.59 6.271-6.271 13.468-10.281 19.74-10.281 4.526-.001 7.507 2.57 8.639 5.757zm-18.095 13.365c-3.393 6.683-6.477 15.319-6.477 17.992 0 2.159 1.337 3.598 3.291 3.598 3.186 0 8.635-5.86 12.234-12.955 3.906-7.915 7.813-17.683 7.813-20.458 0-1.645-1.337-3.392-3.599-3.392-4.729 0-9.252 7.093-13.262 15.215z"/><path id="XMLID_246_" d="m933.665 645.629c.205 0 .514.205.41.514-.719 2.159-3.598 10.179-4.523 12.44-.206.206.102.515.308.308 6.888-9.972 13.056-14.495 18.608-14.495 3.291 0 5.553 1.027 7.197 2.776 1.645 1.542 2.365 3.598 2.365 6.066 0 3.598-1.028 6.27-5.243 15.627-5.553 12.44-6.169 14.187-6.169 15.524 0 1.028.72 1.748 1.645 1.748 2.159 0 4.626-2.262 9.252-9.974.103-.205 1.234.412 1.028.617-4.626 8.637-9.15 13.263-16.655 13.263-3.289 0-5.757-.925-7.607-2.879-1.337-1.337-2.16-3.393-2.16-5.655 0-2.571 1.028-5.963 5.449-15.421 5.038-10.899 5.655-12.441 5.655-13.778 0-1.13-.72-1.952-1.747-1.952-1.645 0-2.982.719-6.58 4.421-4.113 4.009-8.02 10.794-9.974 15.421-1.439 3.291-6.477 15.113-8.019 18.712-.103.41-15.319.102-15.935.102-.205 0-.205-.205-.103-.514 1.337-2.982 10.281-23.544 11.823-27.245 4.011-9.767 5.038-13.673 4.627-14.085-.308-.308-6.271-.205-7.608-.308-.308 0 0-.925.308-.925 5.656 0 23.134-.308 23.648-.308z"/></g></g><g id="XMLID_1200_" opacity=".4"><g><path id="XMLID_599_" d="m494.098 424.824v-5.53c0-19.636 5.815-24.211 12.106-24.211 4.766 0 7.341 2.573 9.914 6.863v-5.909h16.587v52.046h-16.587v-5.909c-2.573 4.288-5.147 6.863-9.914 6.863-6.291-.002-12.106-4.577-12.106-24.213zm22.115.762v-7.054c0-6.482-.762-8.865-2.764-8.865s-2.764 2.383-2.764 8.865v7.054c0 6.482.762 8.865 2.764 8.865s2.764-2.383 2.764-8.865z"/><path id="XMLID_597_" d="m534.987 396.036h16.395v5.909c2.002-3.336 4.957-6.863 10.2-6.863 5.337 0 8.102 2.955 9.531 6.863 2.098-3.717 5.53-6.863 10.771-6.863 6.96 0 10.486 5.147 10.486 12.582v40.417h-16.395v-35.459c0-1.621-.762-2.67-2.002-2.67-1.239 0-2.096 1.049-2.096 2.67v35.459h-16.395v-35.459c0-1.621-.763-2.67-2.002-2.67s-2.098 1.049-2.098 2.67v35.459h-16.395z"/><path id="XMLID_594_" d="m610.954 442.173v5.909h-16.587v-68.156h16.587v22.019c2.574-4.29 5.147-6.863 9.914-6.863 6.291 0 12.106 4.575 12.106 24.211v5.53c0 19.636-5.815 24.211-12.106 24.211-4.766.001-7.339-2.573-9.914-6.861zm5.433-16.587v-7.054c0-6.482-.762-8.865-2.764-8.865-2.001 0-2.764 2.383-2.764 8.865v7.054c0 6.482.763 8.865 2.764 8.865 2.002 0 2.764-2.383 2.764-8.865z"/><path id="XMLID_591_" d="m634.495 424.824v-5.53c0-19.636 5.815-24.211 12.106-24.211 4.766 0 7.341 2.573 9.914 6.863v-5.909h16.587v52.046h-16.587v-5.909c-2.573 4.288-5.147 6.863-9.914 6.863-6.29-.002-12.106-4.577-12.106-24.213zm22.115.762v-7.054c0-6.482-.762-8.865-2.764-8.865s-2.764 2.383-2.764 8.865v7.054c0 6.482.762 8.865 2.764 8.865s2.764-2.383 2.764-8.865z"/><path id="XMLID_589_" d="m674.907 446.08v-15.442c4.385 2.479 8.771 4.194 11.344 4.194 1.811 0 2.479-.858 2.479-1.811v-.19c0-1.144-.762-1.907-3.813-4.29-5.815-4.481-10.58-8.579-10.58-17.825v-.191c0-9.818 6.672-15.728 16.585-15.728 4.481 0 7.912.762 11.535 2.096v15.633c-3.623-1.907-7.531-3.241-10.201-3.241-1.334 0-2.096.762-2.096 1.62v.191c0 1.143 1.525 2.192 3.813 4.003 5.052 4.004 10.58 8.198 10.58 17.825v.191c0 9.627-6.863 16.204-16.014 16.204-4.671.002-9.723-1.141-13.632-3.239z"/><path id="XMLID_587_" d="m705.312 446.08v-15.442c4.385 2.479 8.771 4.194 11.344 4.194 1.811 0 2.479-.858 2.479-1.811v-.19c0-1.144-.762-1.907-3.813-4.29-5.815-4.481-10.58-8.579-10.58-17.825v-.191c0-9.818 6.672-15.728 16.585-15.728 4.481 0 7.912.762 11.535 2.096v15.633c-3.623-1.907-7.531-3.241-10.2-3.241-1.334 0-2.096.762-2.096 1.62v.191c0 1.143 1.525 2.192 3.813 4.003 5.052 4.004 10.58 8.198 10.58 17.825v.191c0 9.627-6.863 16.204-16.014 16.204-4.672.002-9.724-1.141-13.633-3.239z"/><path id="XMLID_584_" d="m735.813 424.824v-5.53c0-19.636 5.815-24.211 12.106-24.211 4.766 0 7.341 2.573 9.914 6.863v-5.909h16.587v52.046h-16.587v-5.909c-2.573 4.288-5.147 6.863-9.914 6.863-6.291-.002-12.106-4.577-12.106-24.213zm22.115.762v-7.054c0-6.482-.762-8.865-2.764-8.865s-2.764 2.383-2.764 8.865v7.054c0 6.482.762 8.865 2.764 8.865s2.764-2.383 2.764-8.865z"/><path id="XMLID_581_" d="m776.32 424.824v-5.53c0-19.636 5.815-24.211 12.106-24.211 4.766 0 7.341 2.573 9.914 6.863v-22.019h16.587v68.156h-16.587v-5.909c-2.573 4.288-5.147 6.863-9.914 6.863-6.29-.002-12.106-4.577-12.106-24.213zm22.115.762v-7.054c0-6.482-.762-8.865-2.764-8.865s-2.764 2.383-2.764 8.865v7.054c0 6.482.762 8.865 2.764 8.865s2.764-2.383 2.764-8.865z"/><path id="XMLID_578_" d="m816.544 424.537v-4.956c0-16.395 7.72-24.784 19.351-24.784 11.438 0 19.16 8.388 19.16 24.784v4.956c0 16.395-7.722 24.784-19.351 24.784-11.44 0-19.16-8.388-19.16-24.784zm22.019-.095v-4.765c0-7.913-.668-10.296-2.764-10.296-2.098 0-2.764 2.383-2.764 10.296v4.765c0 7.913.667 10.295 2.764 10.295 2.096-.001 2.764-2.382 2.764-10.295z"/><path id="XMLID_576_" d="m856.67 396.036h16.491v8.007c1.621-5.911 4.099-8.96 8.103-8.675v19.827h-.285c-5.434 0-7.722 3.336-7.722 10.39v22.496h-16.587z"/><path id="XMLID_573_" d="m882.404 379.926h16.776v13.25h-16.776zm.096 16.11h16.587v52.046h-16.587z"/><path id="XMLID_570_" d="m901.18 424.824v-5.53c0-19.636 5.815-24.211 12.106-24.211 4.766 0 7.341 2.573 9.914 6.863v-5.909h16.587v52.046h-16.587v-5.909c-2.573 4.288-5.147 6.863-9.914 6.863-6.29-.002-12.106-4.577-12.106-24.213zm22.115.762v-7.054c0-6.482-.762-8.865-2.764-8.865s-2.764 2.383-2.764 8.865v7.054c0 6.482.762 8.865 2.764 8.865s2.764-2.383 2.764-8.865z"/><path id="XMLID_568_" d="m942.261 379.926h16.587v68.156h-16.587z"/></g></g><g id="XMLID_1172_" opacity=".4"><g><path id="XMLID_477_" d="m509.769 324.902c0 1.712.32 2.14 2.994 2.354l4.492.214v.748h-20.963v-.748l2.247-.214c2.674-.321 2.995-.642 2.995-2.354v-39.037h-7.38v-.535l7.38-4.384.32-4.599c.963-13.69 8.878-23.637 20.963-23.637 6.738 0 10.054 3.102 10.054 6.311 0 2.674-1.926 4.812-3.85 4.812-.964 0-1.819-.535-3.423-2.567l-4.171-5.133c-.962-1.176-1.712-1.712-2.353-1.712-3.53 0-9.305 6.417-9.305 23.423v2.888h16.042l-1.604 5.133h-14.438z"/><path id="XMLID_474_" d="m543.671 329.929c-14.011 0-22.139-11.123-22.139-24.385 0-14.011 9.947-26.525 23.851-26.525 10.695 0 17.433 6.738 17.433 14.438 0 1.178-.107 2.247-.321 2.888l-32.406-.214c-.321 1.712-.428 3.53-.428 5.562 0 15.508 9.306 21.498 18.289 21.498 8.021 0 11.978-3.316 15.187-6.311l.428.321c-4.064 7.381-11.337 12.728-19.894 12.728zm-13.261-35.293 13.369-.214c6.204-.107 9.626-.321 10.481-.856.321-6.417-2.781-12.94-9.412-12.94-2.888 0-6.31 1.069-9.198 3.85-2.245 2.244-4.278 5.56-5.24 10.16z"/><path id="XMLID_472_" d="m582.706 328.218h-18.716v-.748l2.245-.214c2.674-.321 2.995-.642 2.995-2.354v-33.796c0-1.924-.321-3.102-1.712-4.278l-2.995-2.781v-.32l13.369-5.456.321.321c-.214 1.283-.427 3.744-.534 5.562l-.107 3.53.32.213c7.594-6.31 11.979-8.769 17.541-8.769 2.674 0 5.24.962 6.952 2.781 1.71 1.712 2.46 3.85 2.781 6.524.106-.107.106-.107.213-.214 7.487-6.417 12.514-9.09 17.968-9.09 2.674 0 5.24.962 6.952 2.781 2.353 2.353 2.995 5.883 2.995 10.695v32.299c0 1.712.321 2.033 2.995 2.354l2.246.214v.748h-18.609v-.748l2.138-.214c2.674-.321 2.995-.642 2.995-2.354v-26.737c0-4.492-.107-8.771-2.246-10.909-1.712-1.712-3.637-2.246-6.097-2.246-4.171 0-8.449 2.246-11.444 4.491.107 1.39.107 2.781.107 4.385v31.016c0 1.712.321 2.033 2.995 2.354l2.247.214v.748h-18.61v-.748l2.14-.214c2.674-.321 2.994-.642 2.994-2.354v-26.737c0-4.492-.106-8.771-2.245-10.909-1.712-1.712-3.636-2.246-6.096-2.246-4.278 0-8.342 2.138-11.337 4.384v35.508c0 1.712.321 2.033 2.995 2.354l2.246.214v.746z"/><path id="XMLID_470_" d="m657.138 328.218h-18.716v-.748l2.246-.214c2.674-.321 2.995-.642 2.995-2.354v-33.796c0-1.924-.321-3.102-1.712-4.278l-2.995-2.781v-.32l13.37-5.456.32.321c-.214 1.283-.427 3.744-.534 5.562l-.107 3.53.321.213c7.593-6.31 11.978-8.769 17.54-8.769 2.674 0 5.24.962 6.952 2.781 1.71 1.712 2.46 3.85 2.781 6.524.107-.107.107-.107.213-.214 7.487-6.417 12.514-9.09 17.968-9.09 2.674 0 5.24.962 6.952 2.781 2.354 2.353 2.995 5.883 2.995 10.695v32.299c0 1.712.321 2.033 2.995 2.354l2.246.214v.748h-18.609v-.748l2.138-.214c2.674-.321 2.995-.642 2.995-2.354v-26.737c0-4.492-.107-8.771-2.246-10.909-1.712-1.712-3.637-2.246-6.097-2.246-4.171 0-8.449 2.246-11.443 4.491.106 1.39.106 2.781.106 4.385v31.016c0 1.712.321 2.033 2.995 2.354l2.247.214v.748h-18.61v-.748l2.14-.214c2.674-.321 2.994-.642 2.994-2.354v-26.737c0-4.492-.106-8.771-2.246-10.909-1.712-1.712-3.636-2.246-6.096-2.246-4.278 0-8.342 2.138-11.337 4.384v35.508c0 1.712.321 2.033 2.995 2.354l2.246.214v.746z"/><path id="XMLID_384_" d="m735.419 329.929c-14.011 0-22.139-11.123-22.139-24.385 0-14.011 9.947-26.525 23.851-26.525 10.695 0 17.433 6.738 17.433 14.438 0 1.178-.107 2.247-.321 2.888l-32.406-.214c-.321 1.712-.428 3.53-.428 5.562 0 15.508 9.306 21.498 18.289 21.498 8.021 0 11.978-3.316 15.187-6.311l.428.321c-4.064 7.381-11.337 12.728-19.894 12.728zm-13.261-35.293 13.369-.214c6.204-.107 9.626-.321 10.481-.856.321-6.417-2.781-12.94-9.412-12.94-2.888 0-6.31 1.069-9.198 3.85-2.246 2.244-4.278 5.56-5.24 10.16z"/><path id="XMLID_382_" d="m779.694 324.902c0 1.712.32 2.14 2.994 2.354l4.492.214v.748h-20.963v-.748l2.247-.214c2.674-.321 2.995-.642 2.995-2.354v-39.037h-7.38v-.535l7.38-4.384.32-4.599c.964-13.69 8.878-23.637 20.963-23.637 6.738 0 10.054 3.102 10.054 6.311 0 2.674-1.926 4.812-3.85 4.812-.963 0-1.819-.535-3.423-2.567l-4.171-5.133c-.962-1.176-1.712-1.712-2.353-1.712-3.53 0-9.305 6.417-9.305 23.423v2.888h16.042l-1.604 5.133h-14.438z"/><path id="XMLID_379_" d="m799.372 286.934 2.353 6.097c-.321.641-4.813 2.353-7.166 2.353-1.604 0-2.781-.535-2.781-2.246 0-1.178 1.712-3.209 4.171-5.347 4.919-4.385 11.658-9.092 18.075-9.092 3.315 0 5.347.856 7.059 2.567 2.46 2.354 3.101 5.99 3.101 11.016v24.385c0 3.53.535 5.669 1.712 6.845.856.856 1.926 1.178 3.102 1.178s2.46-.535 3.636-1.604l.321.427c-1.39 2.568-4.812 6.204-9.305 6.204-3.316 0-6.845-1.926-7.487-7.273l-.32-.107-2.14 1.819c-3.957 3.209-6.952 5.133-11.55 5.133-6.739 0-10.375-5.026-10.375-9.947 0-2.353.749-4.17 2.353-5.774 2.14-2.247 6.097-4.064 14.867-6.952l7.058-2.354v-11.015c0-2.995-.748-5.135-2.138-6.525-1.497-1.497-3.743-2.138-5.99-2.138-4.385-.002-7.38 1.709-8.556 2.35zm16.684 18.611c-6.845 2.031-11.336 3.85-13.369 5.988-1.283 1.283-2.031 2.888-2.031 4.921 0 4.491 3.208 7.379 7.593 7.379 3.316 0 5.24-1.069 7.807-2.567z"/><path id="XMLID_373_" d="m838.298 326.72c-2.353-2.353-3.529-5.883-3.529-10.909v-29.946h-5.347v-1.604c5.133-4.492 10.588-10.802 13.903-15.294l.535.321-.641 11.444h17.219l-1.069 5.347-16.364-.214v27.38c0 4.171.748 6.845 2.246 8.342 1.712 1.712 3.743 2.246 6.845 2.246s6.417-1.069 9.305-3.102l.214.428c-1.926 2.247-7.059 8.664-15.294 8.664-2.89-.001-5.883-.963-8.023-3.103z"/><path id="XMLID_346_" d="m868.028 286.934 2.353 6.097c-.321.641-4.813 2.353-7.166 2.353-1.604 0-2.781-.535-2.781-2.246 0-1.178 1.712-3.209 4.171-5.347 4.919-4.385 11.658-9.092 18.075-9.092 3.315 0 5.347.856 7.059 2.567 2.46 2.354 3.101 5.99 3.101 11.016v24.385c0 3.53.535 5.669 1.712 6.845.856.856 1.926 1.178 3.102 1.178s2.46-.535 3.636-1.604l.321.427c-1.39 2.568-4.812 6.204-9.305 6.204-3.316 0-6.845-1.926-7.487-7.273l-.32-.107-2.14 1.819c-3.957 3.209-6.952 5.133-11.55 5.133-6.739 0-10.375-5.026-10.375-9.947 0-2.353.749-4.17 2.353-5.774 2.14-2.247 6.097-4.064 14.867-6.952l7.058-2.354v-11.015c0-2.995-.748-5.135-2.138-6.525-1.497-1.497-3.743-2.138-5.99-2.138-4.385-.002-7.38 1.709-8.556 2.35zm16.683 18.611c-6.845 2.031-11.336 3.85-13.369 5.988-1.283 1.283-2.031 2.888-2.031 4.921 0 4.491 3.208 7.379 7.593 7.379 3.316 0 5.24-1.069 7.807-2.567z"/><path id="XMLID_344_" d="m911.767 324.902c0 1.712.321 2.033 2.995 2.354l2.246.214v.748h-18.716v-.748l2.246-.214c2.674-.321 2.995-.642 2.995-2.354v-59.357c0-1.926-.321-3.102-1.712-4.385l-2.995-2.781v-.321l12.942-5.347.321.321c-.214 2.674-.321 6.31-.321 8.021v63.849z"/><path id="XMLID_336_" d="m940.106 329.929c-14.011 0-22.139-11.123-22.139-24.385 0-14.011 9.947-26.525 23.851-26.525 10.695 0 17.433 6.738 17.433 14.438 0 1.178-.107 2.247-.321 2.888l-32.406-.214c-.321 1.712-.428 3.53-.428 5.562 0 15.508 9.306 21.498 18.289 21.498 8.021 0 11.978-3.316 15.187-6.311l.428.321c-4.064 7.381-11.337 12.728-19.894 12.728zm-13.261-35.293 13.369-.214c6.204-.107 9.626-.321 10.481-.856.321-6.417-2.781-12.94-9.412-12.94-2.888 0-6.31 1.069-9.198 3.85-2.245 2.244-4.278 5.56-5.24 10.16z"/></g></g><g id="XMLID_1147_" opacity=".4"><g><path id="XMLID_176_" d="m61.449 52.72c0 17.338-10.732 32.081-31.372 32.081-5.897 0-12.502-1.415-18.517-4.835-2.595.943-4.835 2.24-7.43 4.128l-.473-.236c.473-3.539.826-9.554.826-12.502v-54.49c0-2.123-.236-3.185-1.297-4.482l-3.186-4.01v-.354l24.887-8.02.236.236c-.236 4.482-.354 9.672-.354 10.733v23.824l.472.236c4.482-5.778 10.497-8.373 15.923-8.373 12.736 0 20.285 10.379 20.285 26.064zm-36.681-16.04-.236 37.152c0 6.134 2.595 8.846 6.015 8.846 5.308 0 10.143-8.61 10.143-23.824 0-14.625-5.425-22.764-12.384-22.764-1.414 0-2.593.236-3.538.59z"/><path id="XMLID_173_" d="m78.2 35.502 3.539 12.148c-2.477 1.297-7.903 2.712-11.795 2.712-4.836 0-6.841-1.65-6.841-4.364 0-1.887 1.652-4.482 4.599-7.43 5.308-5.308 16.513-12.621 26.184-12.621 5.779 0 10.26 1.416 12.974 4.128 3.066 3.068 3.892 7.195 3.892 12.856v26.892c0 3.656.59 4.954 1.769 6.133.826.826 1.887 1.18 3.066 1.18.944 0 2.123-.237 3.775-1.297l.472.472c-2.359 3.066-8.256 8.727-16.04 8.727-6.134 0-10.733-3.066-12.738-8.374l-.354-.117-1.652 1.413c-5.189 4.365-8.846 6.605-14.271 6.605-7.666 0-12.266-5.897-12.266-12.148 0-2.595.944-5.072 2.595-6.723 2.595-2.596 6.134-4.246 16.041-7.548l9.672-3.185v-5.898c0-7.43-.826-11.205-2.477-12.738-1.297-1.415-3.302-1.886-5.307-1.886-2.007.001-3.657.472-4.837 1.063zm12.62 20.757c-3.421 1.887-4.954 2.712-6.605 4.364-1.652 1.652-2.476 3.774-2.476 6.841 0 5.661 2.595 8.727 5.778 8.727 1.416 0 2.359-.353 3.303-.943z"/><path id="XMLID_171_" d="m141.893 79.14c0 1.769.354 2.123 3.185 2.712l1.887.354v1.062h-30.548v-1.062l1.887-.354c2.83-.589 3.185-.943 3.185-2.83v-62.156c0-2.005-.236-3.066-1.18-4.364l-3.302-4.128v-.354l25.004-8.02.236.236c-.236 4.482-.354 9.553-.354 10.615z"/><path id="XMLID_168_" d="m163.24 35.502 3.539 12.148c-2.477 1.297-7.903 2.712-11.795 2.712-4.836 0-6.841-1.65-6.841-4.364 0-1.887 1.652-4.482 4.599-7.43 5.308-5.308 16.513-12.621 26.184-12.621 5.779 0 10.26 1.416 12.974 4.128 3.066 3.068 3.892 7.195 3.892 12.856v26.892c0 3.656.59 4.954 1.769 6.133.826.826 1.887 1.18 3.066 1.18.944 0 2.123-.237 3.775-1.297l.472.472c-2.359 3.066-8.256 8.727-16.04 8.727-6.134 0-10.733-3.066-12.738-8.374l-.354-.117-1.652 1.415c-5.189 4.365-8.846 6.605-14.271 6.605-7.666 0-12.266-5.897-12.266-12.148 0-2.595.944-5.072 2.595-6.723 2.595-2.596 6.134-4.246 16.041-7.548l9.672-3.185v-5.898c0-7.43-.826-11.205-2.477-12.738-1.297-1.415-3.302-1.886-5.307-1.886-2.006-.001-3.656.47-4.837 1.061zm12.621 20.757c-3.421 1.887-4.954 2.712-6.605 4.364-1.652 1.652-2.476 3.774-2.476 6.841 0 5.661 2.595 8.727 5.778 8.727 1.416 0 2.359-.353 3.303-.943z"/><path id="XMLID_166_" d="m256.42 30.311c2.123 2.123 3.656 4.836 3.656 12.031v36.798c0 1.887.354 2.123 3.185 2.712l1.886.354v1.062h-29.604v-1.062l1.887-.354c2.005-.353 2.359-.943 2.359-2.712v-30.193c0-4.128-.354-7.077-1.887-8.729-1.179-1.062-2.712-1.65-4.954-1.65-1.887 0-3.892.589-6.015 1.297v39.275c0 1.769.236 2.359 2.242 2.712l1.886.354v1.062h-29.604v-1.062l1.887-.354c2.83-.589 3.185-.943 3.185-2.83v-36.445c0-2.005-.236-3.066-1.18-4.364l-3.302-4.011v-.352l25.24-8.138.236.236c-.354 4.364-.59 8.61-.59 9.554l-.117 2.476.472.236c7.313-8.374 13.564-11.558 19.815-11.558 3.891 0 7.076 1.414 9.317 3.655z"/><path id="XMLID_164_" d="m314.569 68.997.354.472c-4.836 10.025-12.975 15.687-23.825 15.687-16.276 0-26.066-12.738-26.066-27.717 0-16.158 11.913-30.782 30.784-30.782 11.559 0 19.696 4.717 19.696 12.029 0 5.662-4.954 9.2-9.199 9.2-1.769 0-2.831-.472-4.482-3.538l-7.431-13.683c-.825-1.415-1.179-1.769-2.122-1.769-3.656 0-8.846 7.313-8.846 20.522 0 14.507 7.43 24.533 19.225 24.533 5.071 0 8.727-2.005 11.912-4.954z"/><path id="XMLID_161_" d="m340.519 79.022c0 1.887.236 2.242 3.185 2.83l1.887.354v1.062h-30.548v-1.062l1.887-.354c2.83-.589 3.185-.943 3.185-2.83v-36.562c0-2.006-.236-3.066-1.18-4.364l-3.302-4.011v-.235l25.004-8.02.236.236c-.236 4.364-.354 9.436-.354 10.615zm-9.318-77.725c6.015 0 10.379 4.718 10.379 10.143s-4.718 10.262-11.322 10.262c-6.015 0-10.969-4.365-10.969-10.026 0-5.071 5.071-10.379 11.912-10.379z"/><path id="XMLID_159_" d="m399.847 30.311c2.123 2.123 3.656 4.836 3.656 12.031v36.798c0 1.887.354 2.123 3.185 2.712l1.886.354v1.062h-29.604v-1.062l1.887-.354c2.005-.353 2.359-.943 2.359-2.712v-30.193c0-4.128-.354-7.077-1.887-8.729-1.179-1.062-2.712-1.65-4.954-1.65-1.887 0-3.892.589-6.015 1.297v39.275c0 1.769.236 2.359 2.242 2.712l1.886.354v1.062h-29.604v-1.062l1.887-.354c2.831-.589 3.185-.943 3.185-2.83v-36.445c0-2.005-.236-3.066-1.18-4.364l-3.302-4.011v-.352l25.24-8.138.236.236c-.354 4.364-.59 8.61-.59 9.554l-.117 2.476.472.236c7.313-8.374 13.564-11.558 19.815-11.558 3.891 0 7.076 1.414 9.317 3.655z"/><path id="XMLID_155_" d="m428.628 110.867c-14.507 0-21.702-4.718-21.702-11.44 0-4.482 3.539-8.491 12.856-10.969-2.595-.59-4.954-1.769-6.841-3.538-2.476-2.595-3.774-5.426-3.774-9.2 0-5.779 5.425-9.672 11.676-13.092-6.841-3.302-10.733-9.435-10.733-16.394 0-11.205 9.436-19.342 24.297-19.342 6.958 0 12.855 1.886 18.163 1.886 3.892 0 8.02-1.062 13.681-3.066 1.297 1.652 2.006 3.656 2.006 5.779 0 3.538-2.123 5.661-5.544 5.661-3.185 0-6.015-1.65-9.436-4.009l-2.476-1.77-.354.473c5.544 5.071 7.548 9.317 7.548 14.271 0 11.558-9.436 19.342-23.943 19.342-4.482 0-8.491-.825-11.912-2.24-1.652 1.533-2.477 3.656-2.477 5.189 0 1.887.944 3.302 6.37 3.302 4.245 0 9.672-.117 16.511-.117 9.2 0 16.394.707 20.169 4.482 2.595 2.595 3.538 6.251 3.538 8.963 0 6.134-2.712 9.79-6.487 13.564-7.548 7.547-18.517 12.265-31.136 12.265zm28.425-15.568c0-1.769-.59-3.066-1.416-3.892-2.123-2.123-6.723-2.713-17.573-2.713-5.191 0-10.262.119-15.097.119-.709 0-1.416 0-2.123-.119-.709 1.062-1.062 2.359-1.062 4.011 0 6.958 7.784 10.615 19.106 10.615 13.918-.002 18.165-3.422 18.165-8.021zm-29.251-50.48c0 10.85 2.949 18.753 7.43 18.753 4.011 0 5.426-6.015 5.426-15.097 0-10.733-1.887-19.815-6.605-19.815-3.656 0-6.251 7.43-6.251 16.159z"/></g></g><g id="XMLID_1116_" opacity=".4"><g><path id="XMLID_411_" d="m1.22 181.816c0-15.324 10.425-25.435 22.1-25.435 5.525 0 10.111 1.98 13.239 4.273v-25.227c0-3.231-.833-4.169-8.443-4.794v-.521l15.531-.417v70.051c0 3.544 2.398 4.065 8.444 4.17v.521l-15.428.312v-7.922c-4.796 5.108-9.382 8.443-15.845 8.443-11.363.001-19.598-9.798-19.598-23.454zm35.338 13.865v-30.126c-2.189-5.421-7.088-8.131-13.239-8.131-8.966 0-14.177 9.381-14.177 23.559 0 11.884 5.732 21.057 15.219 21.057 4.275 0 8.757-2.502 12.197-6.359z"/><path id="XMLID_364_" d="m51.671 181.712c0-13.448 9.799-25.644 22.307-25.644 12.614 0 19.703 9.904 19.077 21.266h-33.774c-.105 1.25-.105 2.397-.105 3.649v.105c0 13.76 6.567 22.098 16.366 22.098 7.297 0 12.614-4.69 16.887-10.632l.73.521c-4.379 6.776-10.737 12.51-19.494 12.51-12.404-.001-21.994-9.383-21.994-23.873zm7.714-5.525h26.373c.417-11.049-2.814-19.181-11.987-19.181-8.132 0-13.343 7.09-14.386 19.181z"/><path id="XMLID_362_" d="m96.909 188.697h.312c6.15 12.717 8.757 15.949 17.201 15.949 6.567 0 10.84-3.858 10.84-9.904 0-5.525-1.98-8.131-12.822-11.363-10.216-3.023-15.115-5.941-15.115-13.031 0-7.922 8.131-14.281 15.845-14.281 4.274 0 8.131 1.251 11.363 2.92l3.023-2.92h.521v15.116h-.312c-5.421-11.467-8.235-14.178-14.699-14.178-6.463 0-10.632 3.753-10.632 9.175 0 5.316 3.544 7.714 13.239 10.632 10.425 3.127 14.698 7.193 14.698 13.969 0 8.86-8.339 14.802-16.157 14.802-5.108 0-9.695-1.773-13.134-3.649l-3.649 3.649h-.521v-16.886z"/><path id="XMLID_360_" d="m138.812 192.762v-34.4h-9.695v-.938l9.695-.418v-13.968l7.088-3.441v17.618h15.637v1.147h-15.637v34.817c0 6.255 2.815 9.695 7.193 9.695 3.44 0 6.15-2.189 9.59-7.61l.521.312c-3.544 6.464-7.505 10.008-13.239 10.008-6.462 0-11.153-4.065-11.153-12.822z"/><path id="XMLID_356_" d="m161.119 203.916c6.046-.104 8.443-.626 8.443-4.17v-37.214c0-3.232-.833-4.17-8.443-4.796v-.521l15.531-.626v43.157c0 3.544 2.189 3.961 7.923 4.17v.521h-23.454zm6.358-62.858c0-2.815 2.189-5.212 5.005-5.212 2.814 0 5.003 2.397 5.003 5.212 0 2.814-2.189 5.211-5.003 5.211-2.816 0-5.005-2.397-5.005-5.211z"/><path id="XMLID_353_" d="m182.59 203.916c6.047-.104 8.444-.626 8.444-4.17v-37.214c0-3.232-.833-4.17-8.444-4.796v-.521l15.428-.626v12.405c4.17-6.881 10.634-12.926 17.93-12.926 8.34 0 12.614 5.421 12.614 14.49v29.188c0 3.44 2.189 3.961 7.819 4.17v.521h-22.309v-.521c5.525-.209 7.402-.73 7.402-4.17v-27.52c0-7.402-2.503-12.196-9.175-12.196-5.42 0-10.945 4.69-14.177 10.84v28.876c0 3.44 1.876 3.961 7.402 4.17v.521h-22.934z"/><path id="XMLID_342_" d="m236.168 194.117c0-4.691 2.502-8.131 6.879-10.528 5.734-3.127 14.073-4.379 21.892-5.526v-7.505c0-9.59-3.441-12.822-11.258-12.822-5.317 0-8.757 1.98-10.113 4.065 3.023.521 4.483 2.502 4.483 4.796 0 3.023-1.982 4.899-4.588 4.899-3.126 0-4.69-2.293-4.69-4.899 0-5.943 7.817-10.113 16.471-10.113 10.111 0 16.783 3.962 16.783 13.24v26.477c0 6.15 2.606 7.923 8.861 5.317l.208.312c-2.606 1.876-5.525 3.023-8.443 3.023-4.483 0-7.611-2.189-7.611-8.548h-.103c-4.796 5.42-10.216 8.757-16.367 8.757-8.234.001-12.404-5.316-12.404-10.945zm28.771.834v-15.845c-17.513 2.294-21.371 5.317-21.371 13.657 0 6.046 3.127 9.069 8.444 9.069 5.213-.001 9.486-2.712 12.927-6.881z"/><path id="XMLID_340_" d="m285.993 192.762v-34.4h-9.694v-.938l9.694-.418v-13.968l7.088-3.441v17.618h15.637v1.147h-15.637v34.817c0 6.255 2.815 9.695 7.193 9.695 3.44 0 6.15-2.189 9.59-7.61l.521.312c-3.544 6.464-7.505 10.008-13.239 10.008-6.462 0-11.153-4.065-11.153-12.822z"/><path id="XMLID_307_" d="m308.297 203.916c6.046-.104 8.443-.626 8.443-4.17v-37.214c0-3.232-.833-4.17-8.443-4.796v-.521l15.531-.626v43.157c0 3.544 2.189 3.961 7.923 4.17v.521h-23.454zm6.359-62.858c0-2.815 2.189-5.212 5.005-5.212 2.814 0 5.003 2.397 5.003 5.212 0 2.814-2.189 5.211-5.003 5.211-2.816 0-5.005-2.397-5.005-5.211z"/><path id="XMLID_304_" d="m332.169 180.983c0-14.49 11.466-24.915 23.142-24.915 12.092 0 23.038 10.008 23.038 24.601 0 14.49-11.467 24.915-23.142 24.915-12.094 0-23.038-10.008-23.038-24.601zm38.361-.105c0-17.201-6.881-23.976-15.74-23.976-8.757 0-14.804 6.672-14.804 23.871 0 17.201 6.881 23.976 15.742 23.976 8.756.001 14.802-6.671 14.802-23.871z"/><path id="XMLID_302_" d="m378.761 203.916c6.047-.104 8.444-.626 8.444-4.17v-37.214c0-3.232-.833-4.17-8.444-4.796v-.521l15.428-.626v12.405c4.17-6.881 10.634-12.926 17.93-12.926 8.34 0 12.614 5.421 12.614 14.49v29.188c0 3.44 2.189 3.961 7.819 4.17v.521h-22.309v-.521c5.525-.209 7.402-.73 7.402-4.17v-27.52c0-7.402-2.503-12.196-9.175-12.196-5.42 0-10.945 4.69-14.177 10.84v28.876c0 3.44 1.876 3.961 7.402 4.17v.521h-22.934z"/><path id="XMLID_300_" d="m432.86 188.697h.312c6.15 12.717 8.757 15.949 17.201 15.949 6.567 0 10.84-3.858 10.84-9.904 0-5.525-1.98-8.131-12.822-11.363-10.216-3.023-15.115-5.941-15.115-13.031 0-7.922 8.131-14.281 15.845-14.281 4.274 0 8.131 1.251 11.363 2.92l3.023-2.92h.521v15.116h-.312c-5.421-11.467-8.235-14.178-14.699-14.178-6.463 0-10.632 3.753-10.632 9.175 0 5.316 3.544 7.714 13.239 10.632 10.425 3.127 14.698 7.193 14.698 13.969 0 8.86-8.339 14.802-16.157 14.802-5.108 0-9.694-1.773-13.134-3.649l-3.649 3.649h-.521v-16.886z"/></g></g><g id="XMLID_1080_" opacity=".4"><g><path id="XMLID_537_" d="m20.772 282.613c0-1.598-.747-2.344-2.345-2.344h-1.065c-1.598 0-2.344.746-2.344 2.344v31.541c0 1.598.746 2.344 2.344 2.344h1.172c1.598 0 2.344-.746 2.344-2.344v-12.574h13.746v14.277c0 8.632-4.369 13-13 13h-7.671c-8.632 0-13-4.369-13-13v-34.95c0-8.63 4.369-12.999 13-12.999h7.565c8.63 0 12.999 4.369 12.999 12.999v12.361h-13.745z"/><path id="XMLID_534_" d="m49.645 328.858c-8.632 0-13-4.369-13-13v-34.95c0-8.63 4.369-12.999 13-12.999h8.31c8.63 0 12.999 4.369 12.999 12.999v34.95c0 8.632-4.369 13-12.999 13zm3.409-48.589c-1.598 0-2.344.746-2.344 2.344v31.541c0 1.598.746 2.344 2.344 2.344h1.492c1.598 0 2.344-.746 2.344-2.344v-31.541c0-1.598-.746-2.344-2.344-2.344z"/><path id="XMLID_532_" d="m73.403 268.548h13.853v3.942c3.089-2.664 6.073-4.582 10.228-4.582h1.065c5.648 0 8.95 3.196 8.95 9.697v50.612h-14.064v-45.605c0-1.598-.746-2.344-2.771-2.344-1.278 0-2.344.32-3.196.638v47.31h-14.065z"/><path id="XMLID_530_" d="m126.357 328.218h-14.066v-47.949h-3.836v-11.721h3.836v-9.59h14.066v9.59h5.54v11.721h-5.54z"/><path id="XMLID_527_" d="m145.961 304.031v10.336c0 1.598.747 2.344 2.345 2.344h1.278c1.598 0 2.345-.746 2.345-2.344v-5.648h13.425v7.139c0 8.632-4.369 13-12.999 13h-7.245c-8.632 0-13-4.369-13-13v-34.95c0-8.63 4.369-12.999 13-12.999h7.245c8.63 0 12.999 4.369 12.999 12.999v23.123zm0-10.869h5.754v-10.975c0-1.598-.746-2.345-2.344-2.345h-1.065c-1.598 0-2.345.747-2.345 2.345z"/><path id="XMLID_525_" d="m201.793 328.218h-14.066v-45.605c0-1.598-.638-2.344-2.556-2.344-1.492 0-2.451.32-3.303.638v47.31h-14.066v-59.67h13.853v3.942c3.089-2.664 6.18-4.582 10.336-4.582h.853c4.049 0 6.925 1.705 8.205 5.114 3.302-3.196 6.392-5.114 10.868-5.114h.853c5.647 0 8.95 3.196 8.95 9.697v50.612h-14.066v-45.605c0-1.598-.638-2.344-2.556-2.344-1.492 0-2.451.32-3.303.638v47.313z"/><path id="XMLID_522_" d="m248.779 328.858h-.214c-4.155 0-7.138-1.705-10.228-4.156v15.237h-14.066v-71.39h13.853v4.156c3.089-2.771 6.287-4.796 10.441-4.796h.214c6.18 0 9.803 3.516 9.803 10.336v40.278c0 6.819-3.623 10.335-9.803 10.335zm-7.033-48.589c-1.491 0-2.556.32-3.409.638v34.95c.853.32 1.918.64 3.409.64 2.025 0 2.771-.746 2.771-2.344v-31.541c0-1.597-.746-2.343-2.771-2.343z"/><path id="XMLID_519_" d="m273.817 328.858c-8.632 0-13-4.369-13-13v-34.95c0-8.63 4.369-12.999 13-12.999h8.31c8.63 0 12.999 4.369 12.999 12.999v34.95c0 8.632-4.369 13-12.999 13zm3.409-48.589c-1.598 0-2.344.746-2.344 2.344v31.541c0 1.598.746 2.344 2.344 2.344h1.492c1.598 0 2.344-.746 2.344-2.344v-31.541c0-1.598-.746-2.344-2.344-2.344z"/><path id="XMLID_517_" d="m297.576 268.548h13.853v6.5c2.344-4.794 4.582-7.032 8.63-7.032v15.237c-3.729.32-6.287 1.278-8.418 3.196v41.769h-14.066v-59.67z"/><path id="XMLID_514_" d="m319.844 305.735c0-6.605 2.025-9.376 7.885-11.401l11.508-3.942v-8.312c0-1.598-.746-2.344-2.345-2.344h-.851c-1.599 0-2.558.746-2.558 2.344v7.246h-12.999v-8.419c0-8.63 4.369-12.999 12.999-12.999h6.607c8.63 0 12.999 4.369 12.999 12.999v47.31h-13.639v-3.943c-3.303 2.771-6.074 4.583-10.336 4.583h-.213c-5.754 0-9.057-3.41-9.057-9.697zm19.393 10.442v-14.597l-3.943 1.811c-1.491.746-2.024 1.385-2.024 3.303v7.672c0 1.598.746 2.344 2.664 2.344 1.277 0 2.45-.213 3.303-.533z"/><path id="XMLID_512_" d="m355.642 268.548h13.853v6.5c2.344-4.794 4.582-7.032 8.63-7.032v15.237c-3.729.32-6.287 1.278-8.418 3.196v41.769h-14.066v-59.67z"/><path id="XMLID_507_" d="m379.295 252.564h14.491v12.254h-14.491zm.213 15.984h14.064v59.67h-14.064z"/><path id="XMLID_504_" d="m409.981 304.031v10.336c0 1.598.747 2.344 2.345 2.344h1.278c1.598 0 2.345-.746 2.345-2.344v-5.648h13.425v7.139c0 8.632-4.369 13-12.999 13h-7.245c-8.632 0-13-4.369-13-13v-34.95c0-8.63 4.369-12.999 13-12.999h7.245c8.63 0 12.999 4.369 12.999 12.999v23.123zm0-10.869h5.754v-10.975c0-1.598-.746-2.345-2.344-2.345h-1.065c-1.598 0-2.345.747-2.345 2.345z"/><path id="XMLID_502_" d="m450.575 282.187c0-1.598-.747-2.345-2.345-2.345h-.958c-1.598 0-2.345.747-2.345 2.345v4.156c0 1.704.533 2.451 2.025 3.409l10.868 6.712c4.369 2.771 6.394 5.328 6.394 10.762v8.63c0 8.632-4.369 13-13 13h-6.712c-8.63 0-12.999-4.369-12.999-13v-9.376h13.532v8.098c0 1.598.746 2.344 2.344 2.344h1.172c1.598 0 2.344-.746 2.344-2.344v-4.476c0-1.704-.533-2.451-2.024-3.409l-10.868-6.712c-4.369-2.771-6.394-5.328-6.394-10.762v-8.312c0-8.63 4.369-12.999 13-12.999h6.5c8.63 0 12.999 4.369 12.999 12.999v8.952h-13.532v-7.672z"/></g></g><g id="XMLID_1054_" opacity=".4"><g><path id="XMLID_232_" d="m.887 424.583c0-15.816 9.466-26.842 24.391-26.842 10.802 0 18.487 7.797 18.487 14.034 0 3.675-2.339 6.682-5.791 6.682-3.342 0-5.457-2.562-5.457-5.457 0-2.451 1.337-4.566 4.232-5.569-2.005-2.783-5.792-5.68-11.694-5.68-10.135 0-16.483 9.022-16.483 21.94 0 12.697 6.348 20.605 16.037 20.605 7.797 0 12.363-4.345 15.482-12.028h4.231c-3.006 11.137-10.691 16.817-21.271 16.817-12.585 0-22.164-10.135-22.164-24.502z"/><path id="XMLID_229_" d="m46.546 436.165c0-3.119 1.002-6.348 3.229-8.576 3.675-3.675 8.799-5.234 19.045-7.016 7.016-1.226 8.019-1.56 8.019-3.342v-4.678c0-8.019-4.232-10.803-10.58-10.803-4.343 0-8.353 1.337-10.469 3.454 1.894 1.114 3.008 2.672 3.008 4.9 0 3.118-2.228 5.346-5.235 5.346-3.119 0-5.234-2.117-5.234-5.68 0-6.46 9.132-11.806 18.711-11.806 11.359 0 16.928 4.9 16.928 14.702v26.395c0 4.232 1.559 5.012 3.342 5.012 2.116 0 3.452-1.448 4.9-4.677l2.785 1.336c-2.451 5.235-4.344 8.019-9.356 8.019-4.566 0-7.796-2.562-8.019-9.354h-.223c-3.786 5.679-9.912 9.577-16.928 9.577-8.912-.001-13.923-5.012-13.923-12.809zm30.293-3.118v-10.803c-1.003.335-3.229.669-5.791 1.114-11.917 1.894-16.706 5.012-16.706 11.694 0 6.126 3.342 9.133 9.132 9.133 6.683-.001 13.365-5.458 13.365-11.138z"/><path id="XMLID_226_" d="m90.421 459.999h8.463v-56.8h-8.463v-4.455h15.369v11.694c4.009-8.688 10.023-12.697 17.039-12.697 4.901 0 8.354 1.449 11.694 4.789 4.455 4.455 6.683 11.806 6.683 19.936 0 8.242-2.785 15.816-7.351 20.382-3.342 3.34-7.239 5.234-12.474 5.234-7.462 0-12.808-4.9-15.37-10.691v22.608h10.915v4.454h-26.505zm43.101-37.533c0-14.7-6.348-19.824-12.808-19.824-8.353 0-14.923 9.243-14.923 21.271 0 11.36 6.237 19.268 14.367 19.268 7.573.001 13.364-6.904 13.364-20.715z"/><path id="XMLID_223_" d="m142.093 459.999h8.463v-56.8h-8.463v-4.455h15.37v11.694c4.009-8.688 10.023-12.697 17.039-12.697 4.901 0 8.354 1.449 11.694 4.789 4.455 4.455 6.683 11.806 6.683 19.936 0 8.242-2.785 15.816-7.351 20.382-3.342 3.34-7.239 5.234-12.474 5.234-7.462 0-12.808-4.9-15.369-10.691v22.608h10.915v4.454h-26.507zm43.101-37.533c0-14.7-6.348-19.824-12.808-19.824-8.353 0-14.923 9.243-14.923 21.271 0 11.36 6.237 19.268 14.367 19.268 7.573.001 13.364-6.904 13.364-20.715z"/><path id="XMLID_191_" d="m201.226 433.27v-30.07h-8.353v-4.455h15.48v30.516c0 5.457.557 9.355 2.895 11.694 1.671 1.782 4.121 2.228 6.571 2.228 8.242 0 15.259-9.689 15.259-16.037v-23.946h-8.799v-4.455h15.926v44.883h8.463v4.455h-15.368v-12.808c-6.014 10.692-12.919 13.811-18.599 13.811-8.463-.001-13.475-5.347-13.475-15.816z"/><path id="XMLID_189_" d="m248.22 424.583c0-15.816 9.466-26.842 24.391-26.842 10.802 0 18.487 7.797 18.487 14.034 0 3.675-2.339 6.682-5.791 6.682-3.342 0-5.457-2.562-5.457-5.457 0-2.451 1.337-4.566 4.232-5.569-2.005-2.783-5.792-5.68-11.694-5.68-10.135 0-16.483 9.022-16.483 21.94 0 12.697 6.348 20.605 16.037 20.605 7.797 0 12.363-4.345 15.482-12.028h4.231c-3.006 11.137-10.691 16.817-21.271 16.817-12.585 0-22.164-10.135-22.164-24.502z"/><path id="XMLID_187_" d="m293.21 424.583c0-15.816 9.466-26.842 24.391-26.842 10.802 0 18.487 7.797 18.487 14.034 0 3.675-2.339 6.682-5.791 6.682-3.342 0-5.457-2.562-5.457-5.457 0-2.451 1.337-4.566 4.232-5.569-2.005-2.783-5.792-5.68-11.694-5.68-10.135 0-16.483 9.022-16.483 21.94 0 12.697 6.348 20.605 16.037 20.605 7.797 0 12.363-4.345 15.482-12.028h4.231c-3.006 11.137-10.691 16.817-21.271 16.817-12.586 0-22.164-10.135-22.164-24.502z"/><path id="XMLID_184_" d="m337.308 443.627h9.577v-40.427h-9.577v-4.455h16.705v44.883h9.579v4.455h-26.284zm7.016-62.257c0-3.118 2.228-5.569 5.458-5.569 2.783 0 5.234 2.228 5.234 5.458 0 3.34-2.339 5.568-5.234 5.568-3.118 0-5.458-2.115-5.458-5.457z"/><path id="XMLID_182_" d="m362.697 443.627h8.465v-40.427h-8.465v-4.455h15.37v12.808c6.126-10.692 13.142-13.811 18.934-13.811 8.686 0 13.587 5.346 13.587 15.816v30.07h8.354v4.455h-23.277v-4.455h7.796v-26.061c0-5.457-.668-9.243-2.895-11.471-1.782-1.894-4.12-2.451-6.682-2.451-8.354 0-15.593 9.689-15.593 16.037v23.945h7.796v4.455h-23.388v-4.455z"/><path id="XMLID_179_" d="m418.713 423.914c0-15.591 10.692-26.173 23.165-26.173 13.031 0 23.166 9.912 23.166 25.282 0 15.592-10.692 26.062-23.166 26.062-13.029 0-23.165-9.801-23.165-25.171zm38.647-.557c0-14.923-8.02-21.607-15.816-21.607-7.908 0-15.146 7.017-15.146 21.83 0 14.923 8.019 21.494 15.814 21.494 7.908.001 15.148-6.904 15.148-21.717z"/></g></g><g id="XMLID_1023_" opacity=".4"><g><path id="XMLID_465_" d="m1.268 567.946v-10.232h6.621v-26.741h-6.621v-10.318h19.519v37.146h6.362v10.146h-25.881zm5.762-64.488h13.499v11.35h-13.499z"/><path id="XMLID_463_" d="m45.117 526.932c6.104-5.503 7.996-6.362 12.381-6.362h4.3c4.127 0 6.621.859 8.426 2.665 1.977 1.893 2.751 4.385 2.751 11.35v23.129h6.104v10.232h-23.99v-10.146h5.073v-21.84c0-1.978-.344-3.096-1.032-3.869-.774-.775-1.634-1.032-3.955-1.032h-2.579c-2.237 0-4.3.516-7.481 1.978v24.763h5.072v10.146h-24.245v-10.232h6.363v-26.741h-6.363v-10.318h19.175z"/><path id="XMLID_461_" d="m106.332 566.055-4.901 1.203c-2.063.516-5.331 1.032-8.856 1.032-4.472 0-6.707-.946-8.341-2.579-1.547-1.548-2.15-3.697-2.15-8.513v-26.225h-6.362v-10.318h6.362v-11.779h12.812v11.779h11.522v10.318h-11.522v22.959c0 2.063.172 2.751.688 3.266.344.344 1.204.516 3.353.516h7.395z"/><path id="XMLID_458_" d="m119.57 547.568c.085 7.738.516 9.2 1.118 9.802.602.688 1.462.86 4.127.86h6.621c2.666 0 3.354-.257 3.87-.86.429-.515.602-1.805.687-5.159h11.952c-.085 7.051-.859 10.662-3.181 12.984-1.462 1.462-3.44 2.751-8.426 2.751h-15.735c-4.815 0-7.308-.774-9.372-2.924-3.096-3.096-4.299-6.793-4.299-20.722s1.203-17.626 4.299-20.807c1.978-2.065 4.557-2.838 9.372-2.838h14.101c4.816 0 7.481.774 9.459 2.838 3.096 3.096 3.782 7.137 3.782 20.722v1.462c0 1.375-.343 1.891-1.891 1.891zm0-7.308h15.993c0-6.363-.429-8.426-1.032-9.115-.515-.515-1.29-.774-3.955-.774h-5.762c-2.665 0-3.525.172-4.213.86-.602.602-.946 2.151-1.031 9.029z"/><path id="XMLID_455_" d="m154.216 579.296c-1.719-1.719-2.493-4.3-2.493-10.662h11.694c.085 1.719.257 2.493.774 3.009.516.516 1.203.602 3.096.602h8.254c1.977 0 2.924-.171 3.438-.687.688-.688.86-1.462.86-5.503v-7.137c-5.932 5.159-7.91 5.847-11.866 5.847h-4.213c-4.987 0-7.652-.86-9.716-2.924-2.837-2.838-3.955-7.137-3.955-19.175 0-12.124 1.375-16.25 4.299-19.174 2.065-2.065 4.816-2.924 9.544-2.924h4.472c3.955 0 6.104.774 11.435 5.331v-5.245h19.26v10.318h-6.363v35.684c0 7.91-.602 10.404-2.751 12.468-1.719 1.719-4.299 2.579-8.941 2.579h-19.26c-3.956.001-6.019-.859-7.568-2.407zm10.233-25.623c.774.774 1.893 1.032 4.3 1.032h4.041c2.149 0 4.213-.516 7.05-1.806v-20.034c-2.751-1.29-4.815-1.978-7.05-1.978h-4.041c-2.407 0-3.526.344-4.3 1.118-1.118 1.118-1.462 3.096-1.462 10.834s.344 9.631 1.462 10.834z"/><path id="XMLID_453_" d="m223.255 557.714v10.232h-25.623v-10.232h6.363v-26.741h-6.363v-10.318h19.175v7.223c4.901-5.073 7.394-7.309 11.178-7.309h4.213v12.812h-5.246c-3.612 0-6.363.343-10.146 1.891v22.441h6.449z"/><path id="XMLID_427_" d="m257.818 531.232c-.602-.516-1.462-.688-3.44-.688h-5.76c-1.806 0-2.751.172-3.268.688-.688.688-.774 1.806-.946 4.643h-12.21c.172-7.996.947-10.662 2.838-12.553 1.891-1.893 4.127-2.666 8.426-2.666h16.337c4.643 0 7.222.86 8.943 2.579 2.149 2.063 2.751 4.557 2.751 12.382v22.097h6.104v10.232h-18.916v-5.245c-5.675 4.644-7.653 5.331-11.694 5.331h-5.675c-4.213 0-6.449-.515-8.34-2.407-1.634-1.634-2.751-4.471-2.751-10.662 0-5.847.946-9.63 2.924-11.607 2.235-2.235 5.588-3.181 13.327-3.181 4.213 0 8.426.515 12.21 1.375v-4.041c0-4.644-.259-5.589-.86-6.277zm.86 25.02v-8.254h-7.738c-4.988 0-6.278.344-7.051 1.118-.86.86-1.031 2.065-1.031 4.3 0 2.493.171 3.869.859 4.557.602.602 1.634.774 3.354.774h2.665c2.579-.001 4.642-.345 8.942-2.495z"/><path id="XMLID_425_" d="m304.761 566.055-4.901 1.203c-2.063.516-5.331 1.032-8.856 1.032-4.472 0-6.707-.946-8.341-2.579-1.547-1.548-2.15-3.697-2.15-8.513v-26.225h-6.362v-10.318h6.362v-11.779h12.812v11.779h11.522v10.318h-11.522v22.959c0 2.063.172 2.751.688 3.266.344.344 1.204.516 3.353.516h7.395z"/><path id="XMLID_422_" d="m304.068 567.946v-10.232h6.621v-26.741h-6.621v-10.318h19.519v37.146h6.362v10.146h-25.881zm5.761-64.488h13.499v11.35h-13.499z"/><path id="XMLID_418_" d="m334.073 565.023c-3.096-3.096-4.299-7.394-4.299-20.722 0-13.413 1.203-17.626 4.299-20.807 1.978-2.065 4.557-2.838 9.372-2.838h15.391c4.816 0 7.395.774 9.459 2.838 3.096 3.181 4.213 7.394 4.213 20.807s-1.118 17.627-4.213 20.722c-2.063 2.15-4.643 2.924-9.459 2.924h-15.391c-4.815-.001-7.308-.774-9.372-2.924zm9.63-8.168c.602.602 1.29.774 3.525.774h7.91c2.235 0 2.924-.172 3.44-.774.688-.775 1.118-2.409 1.118-12.554 0-10.146-.429-11.866-1.118-12.553-.516-.603-1.204-.86-3.44-.86h-7.91c-2.235 0-2.924.172-3.525.86-.688.687-1.032 2.407-1.032 12.553s.344 11.779 1.032 12.554z"/><path id="XMLID_416_" d="m392.881 526.932c6.104-5.503 7.996-6.362 12.381-6.362h4.3c4.127 0 6.621.859 8.426 2.665 1.977 1.893 2.751 4.385 2.751 11.35v23.129h6.104v10.232h-23.99v-10.146h5.073v-21.84c0-1.978-.344-3.096-1.032-3.869-.774-.775-1.634-1.032-3.954-1.032h-2.579c-2.237 0-4.3.516-7.481 1.978v24.763h5.072v10.146h-24.247v-10.232h6.363v-26.741h-6.363v-10.318h19.175v6.277z"/><path id="XMLID_414_" d="m429.676 522.805c1.462-1.462 3.353-2.15 6.965-2.15h17.11c4.213 0 6.707.688 8.082 2.063 1.892 1.893 2.579 4.644 2.751 12.64h-11.435c-.172-3.525-.344-4.041-.774-4.557-.344-.429-.946-.602-2.494-.602h-8.512c-1.548 0-2.15.087-2.579.516-.431.43-.688 1.118-.688 3.353 0 2.15.172 2.924.774 3.44.516.43 1.032.602 3.096.86l14.446 1.719c3.612.429 5.416 1.118 6.706 2.407 1.72 1.72 2.237 4.987 2.237 11.093 0 7.05-1.29 10.318-3.268 12.296-1.462 1.462-3.525 2.063-6.965 2.063h-18.315c-4.213 0-6.707-.688-8.168-2.235-1.893-1.893-2.666-4.385-2.838-12.812h11.435c.087 3.525.259 4.385.688 4.901.344.43.86.602 2.494.602h9.888c1.634 0 2.235-.257 2.579-.602.429-.344.602-1.118.602-3.612 0-2.322-.257-3.009-.688-3.525-.429-.431-1.031-.602-3.096-.86l-13.757-1.719c-3.783-.431-5.675-1.118-7.05-2.579-1.978-1.978-2.494-4.3-2.494-10.921 0-6.448 1.376-9.888 3.268-11.779z"/></g></g><g id="XMLID_87_" opacity=".4"><g><path id="XMLID_449_" d="m10.293 639.742h-8.109v-1.95h8.109v-7.392c0-5.851 1.539-10.265 4.208-12.934 2.362-2.36 5.646-3.593 9.752-3.593 3.08 0 5.133.514 7.186 1.438v2.155c-1.951-.924-4.517-1.436-7.186-1.436-7.287 0-11.805 4.619-11.805 14.781v6.981h18.786v1.95h-18.785v49.375h-2.155v-49.375z"/><path id="XMLID_446_" d="m25.179 663.557v-.205c0-14.885 10.778-26.792 25.663-26.792 11.907 0 20.735 7.39 23.712 17.142v-15.91h2.155v51.325h-2.155v-15.911c-2.977 9.752-11.805 17.143-23.712 17.143-14.886 0-25.663-11.908-25.663-26.792zm49.477 0v-.205c0-13.242-9.854-24.739-23.712-24.739-14.063 0-23.507 10.881-23.507 24.636v.205c0 13.653 9.443 24.842 23.507 24.842 13.96 0 23.712-11.394 23.712-24.739z"/><path id="XMLID_443_" d="m80.816 682.444 1.334-1.745c5.646 4.722 12.832 7.288 19.504 7.288 9.238 0 16.218-4.722 16.218-11.395v-.205c0-7.904-8.519-10.162-16.834-12.524-10.471-2.976-17.964-5.646-17.964-13.755v-.205c0-7.185 7.083-13.036 17.861-13.036 5.749 0 12.42 1.95 17.861 5.748l-1.231 1.848c-5.03-3.593-11.189-5.542-16.63-5.542-9.341 0-15.603 4.824-15.603 10.881v.205c0 6.775 7.39 9.34 16.321 11.805 10.162 2.771 18.478 5.646 18.478 14.474v.205c0 8.006-7.905 13.55-18.58 13.55-7.185 0-14.986-2.772-20.735-7.597z"/><path id="XMLID_441_" d="m126.188 614.182h2.155v37.672c1.643-6.261 8.418-15.294 20.633-15.294 13.858 0 21.557 9.341 21.557 23.507v29.05h-2.155v-28.845c0-12.831-6.673-21.659-19.607-21.659-11.395 0-20.428 9.752-20.428 22.07v28.434h-2.155z"/><path id="XMLID_438_" d="m177.409 617.261h3.182v5.851h-3.182zm.514 20.531h2.156v51.325h-2.156z"/><path id="XMLID_435_" d="m186.134 663.659v-.205c0-14.37 10.574-26.894 26.689-26.894 16.014 0 26.69 12.319 26.69 26.689v.205c0 14.372-10.574 26.895-26.69 26.895-16.013 0-26.689-12.318-26.689-26.69zm51.121-.102v-.205c0-13.448-10.163-24.739-24.534-24.739-14.474 0-24.329 11.291-24.329 24.739v.205c0 13.446 10.162 24.739 24.534 24.739 14.474 0 24.329-11.292 24.329-24.739z"/><path id="XMLID_428_" d="m244.954 637.792h2.155v14.062c1.643-6.261 8.418-15.294 20.633-15.294 13.858 0 21.557 9.341 21.557 23.507v29.05h-2.155v-28.845c0-12.831-6.673-21.659-19.607-21.659-11.395 0-20.428 9.752-20.428 22.07v28.434h-2.155z"/><path id="XMLID_407_" d="m296.175 617.261h3.182v5.851h-3.182zm.514 20.531h2.156v51.325h-2.156z"/><path id="XMLID_374_" d="m303.567 682.444 1.334-1.745c5.646 4.722 12.832 7.288 19.504 7.288 9.238 0 16.218-4.722 16.218-11.395v-.205c0-7.904-8.52-10.162-16.834-12.524-10.471-2.976-17.964-5.646-17.964-13.755v-.205c0-7.185 7.083-13.036 17.861-13.036 5.749 0 12.421 1.95 17.861 5.748l-1.231 1.848c-5.03-3.593-11.189-5.542-16.63-5.542-9.341 0-15.603 4.824-15.603 10.881v.205c0 6.775 7.39 9.34 16.322 11.805 10.162 2.771 18.478 5.646 18.478 14.474v.205c0 8.006-7.905 13.55-18.58 13.55-7.187 0-14.987-2.772-20.736-7.597z"/><path id="XMLID_371_" d="m350.992 675.978v-36.236h-8.11v-1.95h8.11v-17.759h2.155v17.759h18.99v1.95h-18.99v36.03c0 7.699 3.696 12.215 10.984 12.215 2.565 0 5.337-.616 7.801-1.848v2.258c-2.463 1.129-5.132 1.643-7.801 1.643-8.521.001-13.139-5.131-13.139-14.062z"/><path id="XMLID_368_" d="m371.007 663.557v-.205c0-14.885 10.778-26.792 25.663-26.792 11.907 0 20.735 7.39 23.712 17.142v-15.91h2.155v51.325h-2.155v-15.911c-2.977 9.752-11.805 17.143-23.712 17.143-14.886 0-25.663-11.908-25.663-26.792zm49.476 0v-.205c0-13.242-9.854-24.739-23.712-24.739-14.063 0-23.507 10.881-23.507 24.636v.205c0 13.653 9.443 24.842 23.507 24.842 13.96 0 23.712-11.394 23.712-24.739z"/><path id="XMLID_366_" d="m426.644 682.444 1.334-1.745c5.646 4.722 12.832 7.288 19.504 7.288 9.238 0 16.218-4.722 16.218-11.395v-.205c0-7.904-8.52-10.162-16.834-12.524-10.471-2.976-17.964-5.646-17.964-13.755v-.205c0-7.185 7.083-13.036 17.861-13.036 5.749 0 12.421 1.95 17.861 5.748l-1.231 1.848c-5.03-3.593-11.189-5.542-16.63-5.542-9.341 0-15.603 4.824-15.603 10.881v.205c0 6.775 7.392 9.34 16.322 11.805 10.162 2.771 18.478 5.646 18.478 14.474v.205c0 8.006-7.905 13.55-18.58 13.55-7.186 0-14.987-2.772-20.736-7.597z"/></g></g><rect fill="none" height="844.8" width="960"/></g></g></svg>